<svg xmlns="http://www.w3.org/2000/svg" width="82" height="36" viewBox="0 0 82 36" fill="none">
<path d="M0 0H8.57143V29.9544C8.57143 30.6676 9.05215 31.0242 10.0136 31.0242C10.9569 31.0242 11.4286 30.6676 11.4286 29.9544V0H20V29.5314C20 31.5881 19.0658 33.1804 17.1973 34.3082C15.3288 35.4361 12.9342 36 10.0136 36C7.31066 36 4.96145 35.4941 2.96599 34.4824C0.988662 33.4706 0 31.8369 0 29.5812V0Z" fill="black"/>
<path d="M50 36H42.8212V15.7908L38.6314 36H33.0876L28.2847 15.7908V36H22V0H32.3467L36.0255 18.6778L39.219 0H50V36Z" fill="black"/>
<path d="M60 36H52V0H60V36Z" fill="black"/>
<path d="M80 4.69456H75.2504V36H66.7496V4.69456H62V0H80V4.69456Z" fill="black"/>
</svg>