<svg width="400" height="240" viewBox="0 0 400 240" fill="none" xmlns="http://www.w3.org/2000/svg">
<g filter="url(#filter0_f_90_10913)">
<circle cx="350" cy="50" r="50" fill="white" fill-opacity="0.1"/>
</g>
<circle cx="2" cy="2" r="2" fill="#0F0F0F"/>
<circle cx="14" cy="2" r="2" fill="#0F0F0F"/>
<circle cx="26" cy="2" r="2" fill="#0F0F0F"/>
<circle cx="38" cy="2" r="2" fill="#0F0F0F"/>
<circle cx="50" cy="2" r="2" fill="#0F0F0F"/>
<circle cx="62" cy="2" r="2" fill="#0F0F0F"/>
<circle cx="74" cy="2" r="2" fill="#0F0F0F"/>
<circle cx="86" cy="2" r="2" fill="#0F0F0F"/>
<circle cx="98" cy="2" r="2" fill="#0F0F0F"/>
<circle cx="110" cy="2" r="2" fill="#0F0F0F"/>
<circle cx="122" cy="2" r="2" fill="#0F0F0F"/>
<circle cx="134" cy="2" r="2" fill="#0F0F0F"/>
<circle cx="146" cy="2" r="2" fill="#0F0F0F"/>
<circle cx="158" cy="2" r="2" fill="#0F0F0F"/>
<circle cx="170" cy="2" r="2" fill="#0F0F0F"/>
<circle cx="182" cy="2" r="2" fill="#0F0F0F"/>
<circle cx="194" cy="2" r="2" fill="#0F0F0F"/>
<circle cx="206" cy="2" r="2" fill="#0F0F0F"/>
<circle cx="218" cy="2" r="2" fill="#0F0F0F"/>
<circle cx="230" cy="2" r="2" fill="#0F0F0F"/>
<circle cx="242" cy="2" r="2" fill="#0F0F0F"/>
<circle cx="254" cy="2" r="2" fill="#0F0F0F"/>
<circle cx="266" cy="2" r="2" fill="#0F0F0F"/>
<circle cx="278" cy="2" r="2" fill="#0F0F0F"/>
<circle cx="290" cy="2" r="2" fill="#0F0F0F"/>
<circle cx="302" cy="2" r="2" fill="#0F0F0F"/>
<circle cx="314" cy="2" r="2" fill="#0F0F0F"/>
<circle cx="326" cy="2" r="2" fill="#0F0F0F"/>
<circle cx="338" cy="2" r="2" fill="#0F0F0F"/>
<circle cx="350" cy="2" r="2" fill="#0F0F0F"/>
<circle cx="362" cy="2" r="2" fill="#0F0F0F"/>
<circle cx="374" cy="2" r="2" fill="#0F0F0F"/>
<circle cx="386" cy="2" r="2" fill="#0F0F0F"/>
<circle cx="398" cy="2" r="2" fill="#0F0F0F"/>
<circle cx="2" cy="14" r="2" fill="#0F0F0F"/>
<circle cx="14" cy="14" r="2" fill="#0F0F0F"/>
<circle cx="26" cy="14" r="2" fill="#0F0F0F"/>
<circle cx="38" cy="14" r="2" fill="#0F0F0F"/>
<circle cx="50" cy="14" r="2" fill="#0F0F0F"/>
<circle cx="62" cy="14" r="2" fill="#0F0F0F"/>
<circle cx="74" cy="14" r="2" fill="#0F0F0F"/>
<circle cx="86" cy="14" r="2" fill="#0F0F0F"/>
<circle cx="98" cy="14" r="2" fill="#0F0F0F"/>
<circle cx="110" cy="14" r="2" fill="#0F0F0F"/>
<circle cx="122" cy="14" r="2" fill="#0F0F0F"/>
<circle cx="134" cy="14" r="2" fill="#0F0F0F"/>
<circle cx="146" cy="14" r="2" fill="#0F0F0F"/>
<circle cx="158" cy="14" r="2" fill="#0F0F0F"/>
<circle cx="170" cy="14" r="2" fill="#0F0F0F"/>
<circle cx="182" cy="14" r="2" fill="#0F0F0F"/>
<circle cx="194" cy="14" r="2" fill="#0F0F0F"/>
<circle cx="206" cy="14" r="2" fill="#0F0F0F"/>
<circle cx="218" cy="14" r="2" fill="#0F0F0F"/>
<circle cx="230" cy="14" r="2" fill="#0F0F0F"/>
<circle cx="242" cy="14" r="2" fill="#0F0F0F"/>
<circle cx="254" cy="14" r="2" fill="#0F0F0F"/>
<circle cx="266" cy="14" r="2" fill="#0F0F0F"/>
<circle cx="278" cy="14" r="2" fill="#0F0F0F"/>
<circle cx="290" cy="14" r="2" fill="#0F0F0F"/>
<circle cx="302" cy="14" r="2" fill="#0F0F0F"/>
<circle cx="314" cy="14" r="2" fill="#0F0F0F"/>
<circle cx="326" cy="14" r="2" fill="#0F0F0F"/>
<circle cx="338" cy="14" r="2" fill="#0F0F0F"/>
<circle cx="350" cy="14" r="2" fill="#0F0F0F"/>
<circle cx="362" cy="14" r="2" fill="#0F0F0F"/>
<circle cx="374" cy="14" r="2" fill="#0F0F0F"/>
<circle cx="386" cy="14" r="2" fill="#0F0F0F"/>
<circle cx="398" cy="14" r="2" fill="#0F0F0F"/>
<circle cx="2" cy="26" r="2" fill="#0F0F0F"/>
<circle cx="14" cy="26" r="2" fill="#0F0F0F"/>
<circle cx="26" cy="26" r="2" fill="#0F0F0F"/>
<circle cx="38" cy="26" r="2" fill="#0F0F0F"/>
<circle cx="50" cy="26" r="2" fill="#0F0F0F"/>
<circle cx="62" cy="26" r="2" fill="#0F0F0F"/>
<circle cx="74" cy="26" r="2" fill="#0F0F0F"/>
<circle cx="86" cy="26" r="2" fill="#0F0F0F"/>
<circle cx="98" cy="26" r="2" fill="#0F0F0F"/>
<circle cx="110" cy="26" r="2" fill="#0F0F0F"/>
<circle cx="122" cy="26" r="2" fill="#0F0F0F"/>
<circle cx="134" cy="26" r="2" fill="#0F0F0F"/>
<circle cx="146" cy="26" r="2" fill="#0F0F0F"/>
<circle cx="158" cy="26" r="2" fill="#0F0F0F"/>
<circle cx="170" cy="26" r="2" fill="#0F0F0F"/>
<circle cx="182" cy="26" r="2" fill="#0F0F0F"/>
<circle cx="194" cy="26" r="2" fill="#0F0F0F"/>
<circle cx="206" cy="26" r="2" fill="#0F0F0F"/>
<circle cx="218" cy="26" r="2" fill="#0F0F0F"/>
<circle cx="230" cy="26" r="2" fill="#0F0F0F"/>
<circle cx="242" cy="26" r="2" fill="#0F0F0F"/>
<circle cx="254" cy="26" r="2" fill="#0F0F0F"/>
<circle cx="266" cy="26" r="2" fill="#0F0F0F"/>
<circle cx="278" cy="26" r="2" fill="#0F0F0F"/>
<circle cx="290" cy="26" r="2" fill="#0F0F0F"/>
<circle cx="302" cy="26" r="2" fill="#0F0F0F"/>
<circle cx="314" cy="26" r="2" fill="#0F0F0F"/>
<circle cx="326" cy="26" r="2" fill="#0F0F0F"/>
<circle cx="338" cy="26" r="2" fill="#0F0F0F"/>
<circle cx="350" cy="26" r="2" fill="#0F0F0F"/>
<circle cx="362" cy="26" r="2" fill="#0F0F0F"/>
<circle cx="374" cy="26" r="2" fill="#0F0F0F"/>
<circle cx="386" cy="26" r="2" fill="#0F0F0F"/>
<circle cx="398" cy="26" r="2" fill="#0F0F0F"/>
<circle cx="2" cy="38" r="2" fill="#0F0F0F"/>
<circle cx="14" cy="38" r="2" fill="#0F0F0F"/>
<circle cx="26" cy="38" r="2" fill="#0F0F0F"/>
<circle cx="38" cy="38" r="2" fill="#0F0F0F"/>
<circle cx="50" cy="38" r="2" fill="#0F0F0F"/>
<circle cx="62" cy="38" r="2" fill="#0F0F0F"/>
<circle cx="74" cy="38" r="2" fill="#0F0F0F"/>
<circle cx="86" cy="38" r="2" fill="#0F0F0F"/>
<circle cx="98" cy="38" r="2" fill="#0F0F0F"/>
<circle cx="110" cy="38" r="2" fill="#0F0F0F"/>
<circle cx="122" cy="38" r="2" fill="#0F0F0F"/>
<circle cx="134" cy="38" r="2" fill="#0F0F0F"/>
<circle cx="146" cy="38" r="2" fill="#0F0F0F"/>
<circle cx="158" cy="38" r="2" fill="#0F0F0F"/>
<circle cx="170" cy="38" r="2" fill="#0F0F0F"/>
<circle cx="182" cy="38" r="2" fill="#0F0F0F"/>
<circle cx="194" cy="38" r="2" fill="#0F0F0F"/>
<circle cx="206" cy="38" r="2" fill="#0F0F0F"/>
<circle cx="218" cy="38" r="2" fill="#0F0F0F"/>
<circle cx="230" cy="38" r="2" fill="#0F0F0F"/>
<circle cx="242" cy="38" r="2" fill="#0F0F0F"/>
<circle cx="254" cy="38" r="2" fill="#0F0F0F"/>
<circle cx="266" cy="38" r="2" fill="#0F0F0F"/>
<circle cx="278" cy="38" r="2" fill="#0F0F0F"/>
<circle cx="290" cy="38" r="2" fill="#0F0F0F"/>
<circle cx="302" cy="38" r="2" fill="#0F0F0F"/>
<circle cx="314" cy="38" r="2" fill="#0F0F0F"/>
<circle cx="326" cy="38" r="2" fill="#0F0F0F"/>
<circle cx="338" cy="38" r="2" fill="#0F0F0F"/>
<circle cx="350" cy="38" r="2" fill="#0F0F0F"/>
<circle cx="362" cy="38" r="2" fill="#0F0F0F"/>
<circle cx="374" cy="38" r="2" fill="#0F0F0F"/>
<circle cx="386" cy="38" r="2" fill="#0F0F0F"/>
<circle cx="398" cy="38" r="2" fill="#0F0F0F"/>
<circle cx="2" cy="50" r="2" fill="#0F0F0F"/>
<circle cx="14" cy="50" r="2" fill="#0F0F0F"/>
<circle cx="26" cy="50" r="2" fill="#0F0F0F"/>
<circle cx="38" cy="50" r="2" fill="#0F0F0F"/>
<circle cx="50" cy="50" r="2" fill="#0F0F0F"/>
<circle cx="62" cy="50" r="2" fill="#0F0F0F"/>
<circle cx="74" cy="50" r="2" fill="#0F0F0F"/>
<circle cx="86" cy="50" r="2" fill="#0F0F0F"/>
<circle cx="98" cy="50" r="2" fill="#0F0F0F"/>
<circle cx="110" cy="50" r="2" fill="#0F0F0F"/>
<circle cx="122" cy="50" r="2" fill="#0F0F0F"/>
<circle cx="134" cy="50" r="2" fill="#0F0F0F"/>
<circle cx="146" cy="50" r="2" fill="#0F0F0F"/>
<circle cx="158" cy="50" r="2" fill="#0F0F0F"/>
<circle cx="170" cy="50" r="2" fill="#0F0F0F"/>
<circle cx="182" cy="50" r="2" fill="#0F0F0F"/>
<circle cx="194" cy="50" r="2" fill="#0F0F0F"/>
<circle cx="206" cy="50" r="2" fill="#0F0F0F"/>
<circle cx="218" cy="50" r="2" fill="#0F0F0F"/>
<circle cx="230" cy="50" r="2" fill="#0F0F0F"/>
<circle cx="242" cy="50" r="2" fill="#0F0F0F"/>
<circle cx="254" cy="50" r="2" fill="#0F0F0F"/>
<circle cx="266" cy="50" r="2" fill="#0F0F0F"/>
<circle cx="278" cy="50" r="2" fill="#0F0F0F"/>
<circle cx="290" cy="50" r="2" fill="#0F0F0F"/>
<circle cx="302" cy="50" r="2" fill="#0F0F0F"/>
<circle cx="314" cy="50" r="2" fill="#0F0F0F"/>
<circle cx="326" cy="50" r="2" fill="#0F0F0F"/>
<circle cx="338" cy="50" r="2" fill="#0F0F0F"/>
<circle cx="350" cy="50" r="2" fill="#0F0F0F"/>
<circle cx="362" cy="50" r="2" fill="#0F0F0F"/>
<circle cx="374" cy="50" r="2" fill="#0F0F0F"/>
<circle cx="386" cy="50" r="2" fill="#0F0F0F"/>
<circle cx="398" cy="50" r="2" fill="#0F0F0F"/>
<circle cx="2" cy="62" r="2" fill="#0F0F0F"/>
<circle cx="14" cy="62" r="2" fill="#0F0F0F"/>
<circle cx="26" cy="62" r="2" fill="#0F0F0F"/>
<circle cx="38" cy="62" r="2" fill="#0F0F0F"/>
<circle cx="50" cy="62" r="2" fill="#0F0F0F"/>
<circle cx="62" cy="62" r="2" fill="#0F0F0F"/>
<circle cx="74" cy="62" r="2" fill="#0F0F0F"/>
<circle cx="86" cy="62" r="2" fill="#0F0F0F"/>
<circle cx="98" cy="62" r="2" fill="#0F0F0F"/>
<circle cx="110" cy="62" r="2" fill="#0F0F0F"/>
<circle cx="122" cy="62" r="2" fill="#0F0F0F"/>
<circle cx="134" cy="62" r="2" fill="#0F0F0F"/>
<circle cx="146" cy="62" r="2" fill="#0F0F0F"/>
<circle cx="158" cy="62" r="2" fill="#0F0F0F"/>
<circle cx="170" cy="62" r="2" fill="#0F0F0F"/>
<circle cx="182" cy="62" r="2" fill="#0F0F0F"/>
<circle cx="194" cy="62" r="2" fill="#0F0F0F"/>
<circle cx="206" cy="62" r="2" fill="#0F0F0F"/>
<circle cx="218" cy="62" r="2" fill="#0F0F0F"/>
<circle cx="230" cy="62" r="2" fill="#0F0F0F"/>
<circle cx="242" cy="62" r="2" fill="#0F0F0F"/>
<circle cx="254" cy="62" r="2" fill="#0F0F0F"/>
<circle cx="266" cy="62" r="2" fill="#0F0F0F"/>
<circle cx="278" cy="62" r="2" fill="#0F0F0F"/>
<circle cx="290" cy="62" r="2" fill="#0F0F0F"/>
<circle cx="302" cy="62" r="2" fill="#0F0F0F"/>
<circle cx="314" cy="62" r="2" fill="#0F0F0F"/>
<circle cx="326" cy="62" r="2" fill="#0F0F0F"/>
<circle cx="338" cy="62" r="2" fill="#0F0F0F"/>
<circle cx="350" cy="62" r="2" fill="#0F0F0F"/>
<circle cx="362" cy="62" r="2" fill="#0F0F0F"/>
<circle cx="374" cy="62" r="2" fill="#0F0F0F"/>
<circle cx="386" cy="62" r="2" fill="#0F0F0F"/>
<circle cx="398" cy="62" r="2" fill="#0F0F0F"/>
<circle cx="2" cy="74" r="2" fill="#0F0F0F"/>
<circle cx="14" cy="74" r="2" fill="#0F0F0F"/>
<circle cx="26" cy="74" r="2" fill="#0F0F0F"/>
<circle cx="38" cy="74" r="2" fill="#0F0F0F"/>
<circle cx="50" cy="74" r="2" fill="#0F0F0F"/>
<circle cx="62" cy="74" r="2" fill="#0F0F0F"/>
<circle cx="74" cy="74" r="2" fill="#0F0F0F"/>
<circle cx="86" cy="74" r="2" fill="#0F0F0F"/>
<circle cx="98" cy="74" r="2" fill="#0F0F0F"/>
<circle cx="110" cy="74" r="2" fill="#0F0F0F"/>
<circle cx="122" cy="74" r="2" fill="#0F0F0F"/>
<circle cx="134" cy="74" r="2" fill="#0F0F0F"/>
<circle cx="146" cy="74" r="2" fill="#0F0F0F"/>
<circle cx="158" cy="74" r="2" fill="#0F0F0F"/>
<circle cx="170" cy="74" r="2" fill="#0F0F0F"/>
<circle cx="182" cy="74" r="2" fill="#0F0F0F"/>
<circle cx="194" cy="74" r="2" fill="#0F0F0F"/>
<circle cx="206" cy="74" r="2" fill="#0F0F0F"/>
<circle cx="218" cy="74" r="2" fill="#0F0F0F"/>
<circle cx="230" cy="74" r="2" fill="#0F0F0F"/>
<circle cx="242" cy="74" r="2" fill="#0F0F0F"/>
<circle cx="254" cy="74" r="2" fill="#0F0F0F"/>
<circle cx="266" cy="74" r="2" fill="#0F0F0F"/>
<circle cx="278" cy="74" r="2" fill="#0F0F0F"/>
<circle cx="290" cy="74" r="2" fill="#0F0F0F"/>
<circle cx="302" cy="74" r="2" fill="#0F0F0F"/>
<circle cx="314" cy="74" r="2" fill="#0F0F0F"/>
<circle cx="326" cy="74" r="2" fill="#0F0F0F"/>
<circle cx="338" cy="74" r="2" fill="#0F0F0F"/>
<circle cx="350" cy="74" r="2" fill="#0F0F0F"/>
<circle cx="362" cy="74" r="2" fill="#0F0F0F"/>
<circle cx="374" cy="74" r="2" fill="#0F0F0F"/>
<circle cx="386" cy="74" r="2" fill="#0F0F0F"/>
<circle cx="398" cy="74" r="2" fill="#0F0F0F"/>
<circle cx="2" cy="86" r="2" fill="#0F0F0F"/>
<circle cx="14" cy="86" r="2" fill="#0F0F0F"/>
<circle cx="26" cy="86" r="2" fill="#0F0F0F"/>
<circle cx="38" cy="86" r="2" fill="#0F0F0F"/>
<circle cx="50" cy="86" r="2" fill="#0F0F0F"/>
<circle cx="62" cy="86" r="2" fill="#0F0F0F"/>
<circle cx="74" cy="86" r="2" fill="#0F0F0F"/>
<circle cx="86" cy="86" r="2" fill="#0F0F0F"/>
<circle cx="98" cy="86" r="2" fill="#0F0F0F"/>
<circle cx="110" cy="86" r="2" fill="#0F0F0F"/>
<circle cx="122" cy="86" r="2" fill="#0F0F0F"/>
<circle cx="134" cy="86" r="2" fill="#0F0F0F"/>
<circle cx="146" cy="86" r="2" fill="#0F0F0F"/>
<circle cx="158" cy="86" r="2" fill="#0F0F0F"/>
<circle cx="170" cy="86" r="2" fill="#0F0F0F"/>
<circle cx="182" cy="86" r="2" fill="#0F0F0F"/>
<circle cx="194" cy="86" r="2" fill="#0F0F0F"/>
<circle cx="206" cy="86" r="2" fill="#0F0F0F"/>
<circle cx="218" cy="86" r="2" fill="#0F0F0F"/>
<circle cx="230" cy="86" r="2" fill="#0F0F0F"/>
<circle cx="242" cy="86" r="2" fill="#0F0F0F"/>
<circle cx="254" cy="86" r="2" fill="#0F0F0F"/>
<circle cx="266" cy="86" r="2" fill="#0F0F0F"/>
<circle cx="278" cy="86" r="2" fill="#0F0F0F"/>
<circle cx="290" cy="86" r="2" fill="#0F0F0F"/>
<circle cx="302" cy="86" r="2" fill="#0F0F0F"/>
<circle cx="314" cy="86" r="2" fill="#0F0F0F"/>
<circle cx="326" cy="86" r="2" fill="#0F0F0F"/>
<circle cx="338" cy="86" r="2" fill="#0F0F0F"/>
<circle cx="350" cy="86" r="2" fill="#0F0F0F"/>
<circle cx="362" cy="86" r="2" fill="#0F0F0F"/>
<circle cx="374" cy="86" r="2" fill="#0F0F0F"/>
<circle cx="386" cy="86" r="2" fill="#0F0F0F"/>
<circle cx="398" cy="86" r="2" fill="#0F0F0F"/>
<circle cx="2" cy="98" r="2" fill="#0F0F0F"/>
<circle cx="14" cy="98" r="2" fill="#0F0F0F"/>
<circle cx="26" cy="98" r="2" fill="#0F0F0F"/>
<circle cx="38" cy="98" r="2" fill="#0F0F0F"/>
<circle cx="50" cy="98" r="2" fill="#0F0F0F"/>
<circle cx="62" cy="98" r="2" fill="#0F0F0F"/>
<circle cx="74" cy="98" r="2" fill="#0F0F0F"/>
<circle cx="86" cy="98" r="2" fill="#0F0F0F"/>
<circle cx="98" cy="98" r="2" fill="#0F0F0F"/>
<circle cx="110" cy="98" r="2" fill="#0F0F0F"/>
<circle cx="122" cy="98" r="2" fill="#0F0F0F"/>
<circle cx="134" cy="98" r="2" fill="#0F0F0F"/>
<circle cx="146" cy="98" r="2" fill="#0F0F0F"/>
<circle cx="158" cy="98" r="2" fill="#0F0F0F"/>
<circle cx="170" cy="98" r="2" fill="#0F0F0F"/>
<circle cx="182" cy="98" r="2" fill="#0F0F0F"/>
<circle cx="194" cy="98" r="2" fill="#0F0F0F"/>
<circle cx="206" cy="98" r="2" fill="#0F0F0F"/>
<circle cx="218" cy="98" r="2" fill="#0F0F0F"/>
<circle cx="230" cy="98" r="2" fill="#0F0F0F"/>
<circle cx="242" cy="98" r="2" fill="#0F0F0F"/>
<circle cx="254" cy="98" r="2" fill="#0F0F0F"/>
<circle cx="266" cy="98" r="2" fill="#0F0F0F"/>
<circle cx="278" cy="98" r="2" fill="#0F0F0F"/>
<circle cx="290" cy="98" r="2" fill="#0F0F0F"/>
<circle cx="302" cy="98" r="2" fill="#0F0F0F"/>
<circle cx="314" cy="98" r="2" fill="#0F0F0F"/>
<circle cx="326" cy="98" r="2" fill="#0F0F0F"/>
<circle cx="338" cy="98" r="2" fill="#0F0F0F"/>
<circle cx="350" cy="98" r="2" fill="#0F0F0F"/>
<circle cx="362" cy="98" r="2" fill="#0F0F0F"/>
<circle cx="374" cy="98" r="2" fill="#0F0F0F"/>
<circle cx="386" cy="98" r="2" fill="#0F0F0F"/>
<circle cx="398" cy="98" r="2" fill="#0F0F0F"/>
<circle cx="2" cy="110" r="2" fill="#0F0F0F"/>
<circle cx="14" cy="110" r="2" fill="#0F0F0F"/>
<circle cx="26" cy="110" r="2" fill="#0F0F0F"/>
<circle cx="38" cy="110" r="2" fill="#0F0F0F"/>
<circle cx="50" cy="110" r="2" fill="#0F0F0F"/>
<circle cx="62" cy="110" r="2" fill="#0F0F0F"/>
<circle cx="74" cy="110" r="2" fill="#0F0F0F"/>
<circle cx="86" cy="110" r="2" fill="#0F0F0F"/>
<circle cx="98" cy="110" r="2" fill="#0F0F0F"/>
<circle cx="110" cy="110" r="2" fill="#0F0F0F"/>
<circle cx="122" cy="110" r="2" fill="#0F0F0F"/>
<circle cx="134" cy="110" r="2" fill="#0F0F0F"/>
<circle cx="146" cy="110" r="2" fill="#0F0F0F"/>
<circle cx="158" cy="110" r="2" fill="#0F0F0F"/>
<circle cx="170" cy="110" r="2" fill="#0F0F0F"/>
<circle cx="182" cy="110" r="2" fill="#0F0F0F"/>
<circle cx="194" cy="110" r="2" fill="#0F0F0F"/>
<circle cx="206" cy="110" r="2" fill="#0F0F0F"/>
<circle cx="218" cy="110" r="2" fill="#0F0F0F"/>
<circle cx="230" cy="110" r="2" fill="#0F0F0F"/>
<circle cx="242" cy="110" r="2" fill="#0F0F0F"/>
<circle cx="254" cy="110" r="2" fill="#0F0F0F"/>
<circle cx="266" cy="110" r="2" fill="#0F0F0F"/>
<circle cx="278" cy="110" r="2" fill="#0F0F0F"/>
<circle cx="290" cy="110" r="2" fill="#0F0F0F"/>
<circle cx="302" cy="110" r="2" fill="#0F0F0F"/>
<circle cx="314" cy="110" r="2" fill="#0F0F0F"/>
<circle cx="326" cy="110" r="2" fill="#0F0F0F"/>
<circle cx="338" cy="110" r="2" fill="#0F0F0F"/>
<circle cx="350" cy="110" r="2" fill="#0F0F0F"/>
<circle cx="362" cy="110" r="2" fill="#0F0F0F"/>
<circle cx="374" cy="110" r="2" fill="#0F0F0F"/>
<circle cx="386" cy="110" r="2" fill="#0F0F0F"/>
<circle cx="398" cy="110" r="2" fill="#0F0F0F"/>
<circle cx="2" cy="122" r="2" fill="#0F0F0F"/>
<circle cx="14" cy="122" r="2" fill="#0F0F0F"/>
<circle cx="26" cy="122" r="2" fill="#0F0F0F"/>
<circle cx="38" cy="122" r="2" fill="#0F0F0F"/>
<circle cx="50" cy="122" r="2" fill="#0F0F0F"/>
<circle cx="62" cy="122" r="2" fill="#0F0F0F"/>
<circle cx="74" cy="122" r="2" fill="#0F0F0F"/>
<circle cx="86" cy="122" r="2" fill="#0F0F0F"/>
<circle cx="98" cy="122" r="2" fill="#0F0F0F"/>
<circle cx="110" cy="122" r="2" fill="#0F0F0F"/>
<circle cx="122" cy="122" r="2" fill="#0F0F0F"/>
<circle cx="134" cy="122" r="2" fill="#0F0F0F"/>
<circle cx="146" cy="122" r="2" fill="#0F0F0F"/>
<circle cx="158" cy="122" r="2" fill="#0F0F0F"/>
<circle cx="170" cy="122" r="2" fill="#0F0F0F"/>
<circle cx="182" cy="122" r="2" fill="#0F0F0F"/>
<circle cx="194" cy="122" r="2" fill="#0F0F0F"/>
<circle cx="206" cy="122" r="2" fill="#0F0F0F"/>
<circle cx="218" cy="122" r="2" fill="#0F0F0F"/>
<circle cx="230" cy="122" r="2" fill="#0F0F0F"/>
<circle cx="242" cy="122" r="2" fill="#0F0F0F"/>
<circle cx="254" cy="122" r="2" fill="#0F0F0F"/>
<circle cx="266" cy="122" r="2" fill="#0F0F0F"/>
<circle cx="278" cy="122" r="2" fill="#0F0F0F"/>
<circle cx="290" cy="122" r="2" fill="#0F0F0F"/>
<circle cx="302" cy="122" r="2" fill="#0F0F0F"/>
<circle cx="314" cy="122" r="2" fill="#0F0F0F"/>
<circle cx="326" cy="122" r="2" fill="#0F0F0F"/>
<circle cx="338" cy="122" r="2" fill="#0F0F0F"/>
<circle cx="350" cy="122" r="2" fill="#0F0F0F"/>
<circle cx="362" cy="122" r="2" fill="#0F0F0F"/>
<circle cx="374" cy="122" r="2" fill="#0F0F0F"/>
<circle cx="386" cy="122" r="2" fill="#0F0F0F"/>
<circle cx="398" cy="122" r="2" fill="#0F0F0F"/>
<circle cx="2" cy="134" r="2" fill="#0F0F0F"/>
<circle cx="14" cy="134" r="2" fill="#0F0F0F"/>
<circle cx="26" cy="134" r="2" fill="#0F0F0F"/>
<circle cx="38" cy="134" r="2" fill="#0F0F0F"/>
<circle cx="50" cy="134" r="2" fill="#0F0F0F"/>
<circle cx="62" cy="134" r="2" fill="#0F0F0F"/>
<circle cx="74" cy="134" r="2" fill="#0F0F0F"/>
<circle cx="86" cy="134" r="2" fill="#0F0F0F"/>
<circle cx="98" cy="134" r="2" fill="#0F0F0F"/>
<circle cx="110" cy="134" r="2" fill="#0F0F0F"/>
<circle cx="122" cy="134" r="2" fill="#0F0F0F"/>
<circle cx="134" cy="134" r="2" fill="#0F0F0F"/>
<circle cx="146" cy="134" r="2" fill="#0F0F0F"/>
<circle cx="158" cy="134" r="2" fill="#0F0F0F"/>
<circle cx="170" cy="134" r="2" fill="#0F0F0F"/>
<circle cx="182" cy="134" r="2" fill="#0F0F0F"/>
<circle cx="194" cy="134" r="2" fill="#0F0F0F"/>
<circle cx="206" cy="134" r="2" fill="#0F0F0F"/>
<circle cx="218" cy="134" r="2" fill="#0F0F0F"/>
<circle cx="230" cy="134" r="2" fill="#0F0F0F"/>
<circle cx="242" cy="134" r="2" fill="#0F0F0F"/>
<circle cx="254" cy="134" r="2" fill="#0F0F0F"/>
<circle cx="266" cy="134" r="2" fill="#0F0F0F"/>
<circle cx="278" cy="134" r="2" fill="#0F0F0F"/>
<circle cx="290" cy="134" r="2" fill="#0F0F0F"/>
<circle cx="302" cy="134" r="2" fill="#0F0F0F"/>
<circle cx="314" cy="134" r="2" fill="#0F0F0F"/>
<circle cx="326" cy="134" r="2" fill="#0F0F0F"/>
<circle cx="338" cy="134" r="2" fill="#0F0F0F"/>
<circle cx="350" cy="134" r="2" fill="#0F0F0F"/>
<circle cx="362" cy="134" r="2" fill="#0F0F0F"/>
<circle cx="374" cy="134" r="2" fill="#0F0F0F"/>
<circle cx="386" cy="134" r="2" fill="#0F0F0F"/>
<circle cx="398" cy="134" r="2" fill="#0F0F0F"/>
<circle cx="2" cy="146" r="2" fill="#0F0F0F"/>
<circle cx="14" cy="146" r="2" fill="#0F0F0F"/>
<circle cx="26" cy="146" r="2" fill="#0F0F0F"/>
<circle cx="38" cy="146" r="2" fill="#0F0F0F"/>
<circle cx="50" cy="146" r="2" fill="#0F0F0F"/>
<circle cx="62" cy="146" r="2" fill="#0F0F0F"/>
<circle cx="74" cy="146" r="2" fill="#0F0F0F"/>
<circle cx="86" cy="146" r="2" fill="#0F0F0F"/>
<circle cx="98" cy="146" r="2" fill="#0F0F0F"/>
<circle cx="110" cy="146" r="2" fill="#0F0F0F"/>
<circle cx="122" cy="146" r="2" fill="#0F0F0F"/>
<circle cx="134" cy="146" r="2" fill="#0F0F0F"/>
<circle cx="146" cy="146" r="2" fill="#0F0F0F"/>
<circle cx="158" cy="146" r="2" fill="#0F0F0F"/>
<circle cx="170" cy="146" r="2" fill="#0F0F0F"/>
<circle cx="182" cy="146" r="2" fill="#0F0F0F"/>
<circle cx="194" cy="146" r="2" fill="#0F0F0F"/>
<circle cx="206" cy="146" r="2" fill="#0F0F0F"/>
<circle cx="218" cy="146" r="2" fill="#0F0F0F"/>
<circle cx="230" cy="146" r="2" fill="#0F0F0F"/>
<circle cx="242" cy="146" r="2" fill="#0F0F0F"/>
<circle cx="254" cy="146" r="2" fill="#0F0F0F"/>
<circle cx="266" cy="146" r="2" fill="#0F0F0F"/>
<circle cx="278" cy="146" r="2" fill="#0F0F0F"/>
<circle cx="290" cy="146" r="2" fill="#0F0F0F"/>
<circle cx="302" cy="146" r="2" fill="#0F0F0F"/>
<circle cx="314" cy="146" r="2" fill="#0F0F0F"/>
<circle cx="326" cy="146" r="2" fill="#0F0F0F"/>
<circle cx="338" cy="146" r="2" fill="#0F0F0F"/>
<circle cx="350" cy="146" r="2" fill="#0F0F0F"/>
<circle cx="362" cy="146" r="2" fill="#0F0F0F"/>
<circle cx="374" cy="146" r="2" fill="#0F0F0F"/>
<circle cx="386" cy="146" r="2" fill="#0F0F0F"/>
<circle cx="398" cy="146" r="2" fill="#0F0F0F"/>
<circle cx="2" cy="158" r="2" fill="#0F0F0F"/>
<circle cx="14" cy="158" r="2" fill="#0F0F0F"/>
<circle cx="26" cy="158" r="2" fill="#0F0F0F"/>
<circle cx="38" cy="158" r="2" fill="#0F0F0F"/>
<circle cx="50" cy="158" r="2" fill="#0F0F0F"/>
<circle cx="62" cy="158" r="2" fill="#0F0F0F"/>
<circle cx="74" cy="158" r="2" fill="#0F0F0F"/>
<circle cx="86" cy="158" r="2" fill="#0F0F0F"/>
<circle cx="98" cy="158" r="2" fill="#0F0F0F"/>
<circle cx="110" cy="158" r="2" fill="#0F0F0F"/>
<circle cx="122" cy="158" r="2" fill="#0F0F0F"/>
<circle cx="134" cy="158" r="2" fill="#0F0F0F"/>
<circle cx="146" cy="158" r="2" fill="#0F0F0F"/>
<circle cx="158" cy="158" r="2" fill="#0F0F0F"/>
<circle cx="170" cy="158" r="2" fill="#0F0F0F"/>
<circle cx="182" cy="158" r="2" fill="#0F0F0F"/>
<circle cx="194" cy="158" r="2" fill="#0F0F0F"/>
<circle cx="206" cy="158" r="2" fill="#0F0F0F"/>
<circle cx="218" cy="158" r="2" fill="#0F0F0F"/>
<circle cx="230" cy="158" r="2" fill="#0F0F0F"/>
<circle cx="242" cy="158" r="2" fill="#0F0F0F"/>
<circle cx="254" cy="158" r="2" fill="#0F0F0F"/>
<circle cx="266" cy="158" r="2" fill="#0F0F0F"/>
<circle cx="278" cy="158" r="2" fill="#0F0F0F"/>
<circle cx="290" cy="158" r="2" fill="#0F0F0F"/>
<circle cx="302" cy="158" r="2" fill="#0F0F0F"/>
<circle cx="314" cy="158" r="2" fill="#0F0F0F"/>
<circle cx="326" cy="158" r="2" fill="#0F0F0F"/>
<circle cx="338" cy="158" r="2" fill="#0F0F0F"/>
<circle cx="350" cy="158" r="2" fill="#0F0F0F"/>
<circle cx="362" cy="158" r="2" fill="#0F0F0F"/>
<circle cx="374" cy="158" r="2" fill="#0F0F0F"/>
<circle cx="386" cy="158" r="2" fill="#0F0F0F"/>
<circle cx="398" cy="158" r="2" fill="#0F0F0F"/>
<circle cx="2" cy="170" r="2" fill="#0F0F0F"/>
<circle cx="14" cy="170" r="2" fill="#0F0F0F"/>
<circle cx="26" cy="170" r="2" fill="#0F0F0F"/>
<circle cx="38" cy="170" r="2" fill="#0F0F0F"/>
<circle cx="50" cy="170" r="2" fill="#0F0F0F"/>
<circle cx="62" cy="170" r="2" fill="#0F0F0F"/>
<circle cx="74" cy="170" r="2" fill="#0F0F0F"/>
<circle cx="86" cy="170" r="2" fill="#0F0F0F"/>
<circle cx="98" cy="170" r="2" fill="#0F0F0F"/>
<circle cx="110" cy="170" r="2" fill="#0F0F0F"/>
<circle cx="122" cy="170" r="2" fill="#0F0F0F"/>
<circle cx="134" cy="170" r="2" fill="#0F0F0F"/>
<circle cx="146" cy="170" r="2" fill="#0F0F0F"/>
<circle cx="158" cy="170" r="2" fill="#0F0F0F"/>
<circle cx="170" cy="170" r="2" fill="#0F0F0F"/>
<circle cx="182" cy="170" r="2" fill="#0F0F0F"/>
<circle cx="194" cy="170" r="2" fill="#0F0F0F"/>
<circle cx="206" cy="170" r="2" fill="#0F0F0F"/>
<circle cx="218" cy="170" r="2" fill="#0F0F0F"/>
<circle cx="230" cy="170" r="2" fill="#0F0F0F"/>
<circle cx="242" cy="170" r="2" fill="#0F0F0F"/>
<circle cx="254" cy="170" r="2" fill="#0F0F0F"/>
<circle cx="266" cy="170" r="2" fill="#0F0F0F"/>
<circle cx="278" cy="170" r="2" fill="#0F0F0F"/>
<circle cx="290" cy="170" r="2" fill="#0F0F0F"/>
<circle cx="302" cy="170" r="2" fill="#0F0F0F"/>
<circle cx="314" cy="170" r="2" fill="#0F0F0F"/>
<circle cx="326" cy="170" r="2" fill="#0F0F0F"/>
<circle cx="338" cy="170" r="2" fill="#0F0F0F"/>
<circle cx="350" cy="170" r="2" fill="#0F0F0F"/>
<circle cx="362" cy="170" r="2" fill="#0F0F0F"/>
<circle cx="374" cy="170" r="2" fill="#0F0F0F"/>
<circle cx="386" cy="170" r="2" fill="#0F0F0F"/>
<circle cx="398" cy="170" r="2" fill="#0F0F0F"/>
<circle cx="2" cy="182" r="2" fill="#0F0F0F"/>
<circle cx="14" cy="182" r="2" fill="#0F0F0F"/>
<circle cx="26" cy="182" r="2" fill="#0F0F0F"/>
<circle cx="38" cy="182" r="2" fill="#0F0F0F"/>
<circle cx="50" cy="182" r="2" fill="#0F0F0F"/>
<circle cx="62" cy="182" r="2" fill="#0F0F0F"/>
<circle cx="74" cy="182" r="2" fill="#0F0F0F"/>
<circle cx="86" cy="182" r="2" fill="#0F0F0F"/>
<circle cx="98" cy="182" r="2" fill="#0F0F0F"/>
<circle cx="110" cy="182" r="2" fill="#0F0F0F"/>
<circle cx="122" cy="182" r="2" fill="#0F0F0F"/>
<circle cx="134" cy="182" r="2" fill="#0F0F0F"/>
<circle cx="146" cy="182" r="2" fill="#0F0F0F"/>
<circle cx="158" cy="182" r="2" fill="#0F0F0F"/>
<circle cx="170" cy="182" r="2" fill="#0F0F0F"/>
<circle cx="182" cy="182" r="2" fill="#0F0F0F"/>
<circle cx="194" cy="182" r="2" fill="#0F0F0F"/>
<circle cx="206" cy="182" r="2" fill="#0F0F0F"/>
<circle cx="218" cy="182" r="2" fill="#0F0F0F"/>
<circle cx="230" cy="182" r="2" fill="#0F0F0F"/>
<circle cx="242" cy="182" r="2" fill="#0F0F0F"/>
<circle cx="254" cy="182" r="2" fill="#0F0F0F"/>
<circle cx="266" cy="182" r="2" fill="#0F0F0F"/>
<circle cx="278" cy="182" r="2" fill="#0F0F0F"/>
<circle cx="290" cy="182" r="2" fill="#0F0F0F"/>
<circle cx="302" cy="182" r="2" fill="#0F0F0F"/>
<circle cx="314" cy="182" r="2" fill="#0F0F0F"/>
<circle cx="326" cy="182" r="2" fill="#0F0F0F"/>
<circle cx="338" cy="182" r="2" fill="#0F0F0F"/>
<circle cx="350" cy="182" r="2" fill="#0F0F0F"/>
<circle cx="362" cy="182" r="2" fill="#0F0F0F"/>
<circle cx="374" cy="182" r="2" fill="#0F0F0F"/>
<circle cx="386" cy="182" r="2" fill="#0F0F0F"/>
<circle cx="398" cy="182" r="2" fill="#0F0F0F"/>
<circle cx="2" cy="194" r="2" fill="#0F0F0F"/>
<circle cx="14" cy="194" r="2" fill="#0F0F0F"/>
<circle cx="26" cy="194" r="2" fill="#0F0F0F"/>
<circle cx="38" cy="194" r="2" fill="#0F0F0F"/>
<circle cx="50" cy="194" r="2" fill="#0F0F0F"/>
<circle cx="62" cy="194" r="2" fill="#0F0F0F"/>
<circle cx="74" cy="194" r="2" fill="#0F0F0F"/>
<circle cx="86" cy="194" r="2" fill="#0F0F0F"/>
<circle cx="98" cy="194" r="2" fill="#0F0F0F"/>
<circle cx="110" cy="194" r="2" fill="#0F0F0F"/>
<circle cx="122" cy="194" r="2" fill="#0F0F0F"/>
<circle cx="134" cy="194" r="2" fill="#0F0F0F"/>
<circle cx="146" cy="194" r="2" fill="#0F0F0F"/>
<circle cx="158" cy="194" r="2" fill="#0F0F0F"/>
<circle cx="170" cy="194" r="2" fill="#0F0F0F"/>
<circle cx="182" cy="194" r="2" fill="#0F0F0F"/>
<circle cx="194" cy="194" r="2" fill="#0F0F0F"/>
<circle cx="206" cy="194" r="2" fill="#0F0F0F"/>
<circle cx="218" cy="194" r="2" fill="#0F0F0F"/>
<circle cx="230" cy="194" r="2" fill="#0F0F0F"/>
<circle cx="242" cy="194" r="2" fill="#0F0F0F"/>
<circle cx="254" cy="194" r="2" fill="#0F0F0F"/>
<circle cx="266" cy="194" r="2" fill="#0F0F0F"/>
<circle cx="278" cy="194" r="2" fill="#0F0F0F"/>
<circle cx="290" cy="194" r="2" fill="#0F0F0F"/>
<circle cx="302" cy="194" r="2" fill="#0F0F0F"/>
<circle cx="314" cy="194" r="2" fill="#0F0F0F"/>
<circle cx="326" cy="194" r="2" fill="#0F0F0F"/>
<circle cx="338" cy="194" r="2" fill="#0F0F0F"/>
<circle cx="350" cy="194" r="2" fill="#0F0F0F"/>
<circle cx="362" cy="194" r="2" fill="#0F0F0F"/>
<circle cx="374" cy="194" r="2" fill="#0F0F0F"/>
<circle cx="386" cy="194" r="2" fill="#0F0F0F"/>
<circle cx="398" cy="194" r="2" fill="#0F0F0F"/>
<circle cx="2" cy="206" r="2" fill="#0F0F0F"/>
<circle cx="14" cy="206" r="2" fill="#0F0F0F"/>
<circle cx="26" cy="206" r="2" fill="#0F0F0F"/>
<circle cx="38" cy="206" r="2" fill="#0F0F0F"/>
<circle cx="50" cy="206" r="2" fill="#0F0F0F"/>
<circle cx="62" cy="206" r="2" fill="#0F0F0F"/>
<circle cx="74" cy="206" r="2" fill="#0F0F0F"/>
<circle cx="86" cy="206" r="2" fill="#0F0F0F"/>
<circle cx="98" cy="206" r="2" fill="#0F0F0F"/>
<circle cx="110" cy="206" r="2" fill="#0F0F0F"/>
<circle cx="122" cy="206" r="2" fill="#0F0F0F"/>
<circle cx="134" cy="206" r="2" fill="#0F0F0F"/>
<circle cx="146" cy="206" r="2" fill="#0F0F0F"/>
<circle cx="158" cy="206" r="2" fill="#0F0F0F"/>
<circle cx="170" cy="206" r="2" fill="#0F0F0F"/>
<circle cx="182" cy="206" r="2" fill="#0F0F0F"/>
<circle cx="194" cy="206" r="2" fill="#0F0F0F"/>
<circle cx="206" cy="206" r="2" fill="#0F0F0F"/>
<circle cx="218" cy="206" r="2" fill="#0F0F0F"/>
<circle cx="230" cy="206" r="2" fill="#0F0F0F"/>
<circle cx="242" cy="206" r="2" fill="#0F0F0F"/>
<circle cx="254" cy="206" r="2" fill="#0F0F0F"/>
<circle cx="266" cy="206" r="2" fill="#0F0F0F"/>
<circle cx="278" cy="206" r="2" fill="#0F0F0F"/>
<circle cx="290" cy="206" r="2" fill="#0F0F0F"/>
<circle cx="302" cy="206" r="2" fill="#0F0F0F"/>
<circle cx="314" cy="206" r="2" fill="#0F0F0F"/>
<circle cx="326" cy="206" r="2" fill="#0F0F0F"/>
<circle cx="338" cy="206" r="2" fill="#0F0F0F"/>
<circle cx="350" cy="206" r="2" fill="#0F0F0F"/>
<circle cx="362" cy="206" r="2" fill="#0F0F0F"/>
<circle cx="374" cy="206" r="2" fill="#0F0F0F"/>
<circle cx="386" cy="206" r="2" fill="#0F0F0F"/>
<circle cx="398" cy="206" r="2" fill="#0F0F0F"/>
<circle cx="2" cy="218" r="2" fill="#0F0F0F"/>
<circle cx="14" cy="218" r="2" fill="#0F0F0F"/>
<circle cx="26" cy="218" r="2" fill="#0F0F0F"/>
<circle cx="38" cy="218" r="2" fill="#0F0F0F"/>
<circle cx="50" cy="218" r="2" fill="#0F0F0F"/>
<circle cx="62" cy="218" r="2" fill="#0F0F0F"/>
<circle cx="74" cy="218" r="2" fill="#0F0F0F"/>
<circle cx="86" cy="218" r="2" fill="#0F0F0F"/>
<circle cx="98" cy="218" r="2" fill="#0F0F0F"/>
<circle cx="110" cy="218" r="2" fill="#0F0F0F"/>
<circle cx="122" cy="218" r="2" fill="#0F0F0F"/>
<circle cx="134" cy="218" r="2" fill="#0F0F0F"/>
<circle cx="146" cy="218" r="2" fill="#0F0F0F"/>
<circle cx="158" cy="218" r="2" fill="#0F0F0F"/>
<circle cx="170" cy="218" r="2" fill="#0F0F0F"/>
<circle cx="182" cy="218" r="2" fill="#0F0F0F"/>
<circle cx="194" cy="218" r="2" fill="#0F0F0F"/>
<circle cx="206" cy="218" r="2" fill="#0F0F0F"/>
<circle cx="218" cy="218" r="2" fill="#0F0F0F"/>
<circle cx="230" cy="218" r="2" fill="#0F0F0F"/>
<circle cx="242" cy="218" r="2" fill="#0F0F0F"/>
<circle cx="254" cy="218" r="2" fill="#0F0F0F"/>
<circle cx="266" cy="218" r="2" fill="#0F0F0F"/>
<circle cx="278" cy="218" r="2" fill="#0F0F0F"/>
<circle cx="290" cy="218" r="2" fill="#0F0F0F"/>
<circle cx="302" cy="218" r="2" fill="#0F0F0F"/>
<circle cx="314" cy="218" r="2" fill="#0F0F0F"/>
<circle cx="326" cy="218" r="2" fill="#0F0F0F"/>
<circle cx="338" cy="218" r="2" fill="#0F0F0F"/>
<circle cx="350" cy="218" r="2" fill="#0F0F0F"/>
<circle cx="362" cy="218" r="2" fill="#0F0F0F"/>
<circle cx="374" cy="218" r="2" fill="#0F0F0F"/>
<circle cx="386" cy="218" r="2" fill="#0F0F0F"/>
<circle cx="398" cy="218" r="2" fill="#0F0F0F"/>
<circle cx="2" cy="230" r="2" fill="#0F0F0F"/>
<circle cx="14" cy="230" r="2" fill="#0F0F0F"/>
<circle cx="26" cy="230" r="2" fill="#0F0F0F"/>
<circle cx="38" cy="230" r="2" fill="#0F0F0F"/>
<circle cx="50" cy="230" r="2" fill="#0F0F0F"/>
<circle cx="62" cy="230" r="2" fill="#0F0F0F"/>
<circle cx="74" cy="230" r="2" fill="#0F0F0F"/>
<circle cx="86" cy="230" r="2" fill="#0F0F0F"/>
<circle cx="98" cy="230" r="2" fill="#0F0F0F"/>
<circle cx="110" cy="230" r="2" fill="#0F0F0F"/>
<circle cx="122" cy="230" r="2" fill="#0F0F0F"/>
<circle cx="134" cy="230" r="2" fill="#0F0F0F"/>
<circle cx="146" cy="230" r="2" fill="#0F0F0F"/>
<circle cx="158" cy="230" r="2" fill="#0F0F0F"/>
<circle cx="170" cy="230" r="2" fill="#0F0F0F"/>
<circle cx="182" cy="230" r="2" fill="#0F0F0F"/>
<circle cx="194" cy="230" r="2" fill="#0F0F0F"/>
<circle cx="206" cy="230" r="2" fill="#0F0F0F"/>
<circle cx="218" cy="230" r="2" fill="#0F0F0F"/>
<circle cx="230" cy="230" r="2" fill="#0F0F0F"/>
<circle cx="242" cy="230" r="2" fill="#0F0F0F"/>
<circle cx="254" cy="230" r="2" fill="#0F0F0F"/>
<circle cx="266" cy="230" r="2" fill="#0F0F0F"/>
<circle cx="278" cy="230" r="2" fill="#0F0F0F"/>
<circle cx="290" cy="230" r="2" fill="#0F0F0F"/>
<circle cx="302" cy="230" r="2" fill="#0F0F0F"/>
<circle cx="314" cy="230" r="2" fill="#0F0F0F"/>
<circle cx="326" cy="230" r="2" fill="#0F0F0F"/>
<circle cx="338" cy="230" r="2" fill="#0F0F0F"/>
<circle cx="350" cy="230" r="2" fill="#0F0F0F"/>
<circle cx="362" cy="230" r="2" fill="#0F0F0F"/>
<circle cx="374" cy="230" r="2" fill="#0F0F0F"/>
<circle cx="386" cy="230" r="2" fill="#0F0F0F"/>
<circle cx="398" cy="230" r="2" fill="#0F0F0F"/>
<defs>
<filter id="filter0_f_90_10913" x="220" y="-80" width="260" height="260" filterUnits="userSpaceOnUse" color-interpolation-filters="sRGB">
<feFlood flood-opacity="0" result="BackgroundImageFix"/>
<feBlend mode="normal" in="SourceGraphic" in2="BackgroundImageFix" result="shape"/>
<feGaussianBlur stdDeviation="40" result="effect1_foregroundBlur_90_10913"/>
</filter>
</defs>
</svg>
