<svg width="124" height="124" viewBox="0 0 124 124" fill="none" xmlns="http://www.w3.org/2000/svg">
<path d="M60.7034 121.061L59.6471 120.98L57.6308 114.724L57.5452 114.717L54.5942 120.593L53.5379 120.513L54.101 113.205L54.9288 113.268L54.501 118.82L54.5724 118.826L57.284 113.448L58.0834 113.509L59.9394 119.236L60.0108 119.242L60.4385 113.69L61.2664 113.753L60.7034 121.061Z" fill="black"/>
<path d="M50.7856 112.331C51.269 112.444 51.666 112.658 51.9768 112.973C52.2853 113.287 52.4932 113.675 52.6006 114.136C52.7057 114.597 52.6933 115.103 52.5634 115.656C52.4325 116.214 52.2172 116.677 51.9174 117.045C51.6153 117.413 51.256 117.67 50.8395 117.816C50.4207 117.96 49.9696 117.977 49.4863 117.864C49.003 117.751 48.6071 117.538 48.2986 117.223C47.9878 116.908 47.7802 116.519 47.6757 116.056C47.5688 115.593 47.5809 115.082 47.7118 114.525C47.8416 113.972 48.0573 113.513 48.3589 113.147C48.6581 112.781 49.0172 112.525 49.436 112.38C49.8524 112.235 50.3023 112.218 50.7856 112.331ZM50.6122 113.07C50.2451 112.984 49.9209 113.008 49.6397 113.141C49.3585 113.273 49.125 113.48 48.9391 113.76C48.7533 114.04 48.6183 114.359 48.5343 114.717C48.4503 115.074 48.429 115.421 48.4703 115.756C48.5116 116.092 48.6284 116.382 48.8207 116.628C49.0129 116.874 49.2926 117.04 49.6598 117.125C50.0269 117.211 50.3513 117.186 50.6331 117.051C50.9148 116.916 51.1489 116.707 51.3353 116.424C51.5217 116.142 51.6569 115.822 51.7409 115.464C51.8249 115.107 51.846 114.761 51.8041 114.428C51.7623 114.095 51.6449 113.807 51.4521 113.563C51.2593 113.32 50.9793 113.155 50.6122 113.07Z" fill="black"/>
<path d="M44.9975 110.894L42.9362 115.99L42.179 115.686L42.4904 114.916L42.4372 114.894C42.2423 115.109 41.9912 115.246 41.6842 115.306C41.3771 115.365 41.0708 115.333 40.7653 115.21C40.7077 115.187 40.6362 115.157 40.5507 115.12C40.4653 115.083 40.4013 115.054 40.3588 115.032L40.6809 114.235C40.7048 114.253 40.7616 114.287 40.8515 114.339C40.9382 114.391 41.0336 114.439 41.1377 114.481C41.3856 114.58 41.6281 114.617 41.8649 114.591C42.0987 114.567 42.3087 114.487 42.495 114.351C42.6782 114.216 42.8163 114.034 42.9093 113.804L44.2137 110.579L44.9975 110.894Z" fill="black"/>
<path d="M36.3488 106.817C36.8045 107.087 37.1377 107.42 37.3484 107.817C37.5559 108.214 37.6407 108.647 37.6029 109.115C37.5618 109.585 37.3971 110.061 37.1086 110.545C36.8201 111.028 36.4775 111.402 36.0809 111.666C35.6811 111.931 35.2603 112.073 34.8187 112.092C34.3737 112.111 33.9378 111.994 33.5108 111.741C33.2645 111.595 33.0457 111.41 32.8544 111.186C32.6631 110.962 32.524 110.699 32.4369 110.398C32.3487 110.099 32.3359 109.764 32.3986 109.393C32.4613 109.023 32.624 108.617 32.8869 108.177L33.0702 107.87L36.7159 110.029L36.3419 110.656L33.4351 108.934C33.2762 109.201 33.1878 109.47 33.1698 109.742C33.1498 110.013 33.2013 110.267 33.3242 110.503C33.445 110.739 33.6368 110.934 33.8996 111.09C34.189 111.261 34.4822 111.338 34.7792 111.32C35.073 111.302 35.3441 111.213 35.5927 111.053C35.8413 110.892 36.0432 110.682 36.1985 110.422L36.4479 110.004C36.6606 109.647 36.7793 109.308 36.8041 108.987C36.8255 108.667 36.7639 108.377 36.6193 108.117C36.4734 107.858 36.2536 107.642 35.9601 107.468C35.7692 107.355 35.5808 107.28 35.3951 107.242C35.2061 107.205 35.0227 107.207 34.845 107.249C34.6661 107.292 34.497 107.378 34.3376 107.506L33.7529 106.893C33.9686 106.699 34.2175 106.564 34.4996 106.487C34.7804 106.412 35.0791 106.4 35.3956 106.452C35.7108 106.505 36.0286 106.627 36.3488 106.817Z" fill="black"/>
<path d="M18.0126 98.8265C17.77 99.0993 17.6756 99.4161 17.7294 99.7768C17.7831 100.138 17.9579 100.483 18.2537 100.814C18.47 101.056 18.6986 101.233 18.9393 101.344C19.1785 101.454 19.412 101.499 19.6401 101.478C19.8665 101.456 20.0672 101.367 20.242 101.212C20.3883 101.082 20.483 100.936 20.5263 100.773C20.5661 100.61 20.5715 100.442 20.5425 100.27C20.5117 100.1 20.4645 99.9342 20.4009 99.7736C20.3356 99.6147 20.2709 99.4726 20.207 99.3475L19.8606 98.6595C19.7709 98.484 19.681 98.2798 19.5912 98.0469C19.4997 97.8122 19.4395 97.5641 19.4105 97.3027C19.3782 97.041 19.4034 96.7793 19.4862 96.5176C19.5689 96.2558 19.7388 96.0108 19.9957 95.7827C20.2918 95.5197 20.6286 95.3594 21.0061 95.3019C21.3819 95.2425 21.7723 95.2979 22.1773 95.4679C22.5807 95.6362 22.9701 95.9302 23.3454 96.3499C23.6954 96.7412 23.935 97.1362 24.0644 97.535C24.1923 97.932 24.2161 98.313 24.1358 98.6778C24.054 99.0408 23.8728 99.3661 23.5921 99.6536L22.9813 98.9707C23.1724 98.7691 23.2816 98.5477 23.3091 98.3063C23.3331 98.0648 23.2946 97.8213 23.1936 97.576C23.0893 97.3305 22.94 97.0992 22.746 96.8822C22.5201 96.6297 22.2763 96.4394 22.0145 96.3113C21.7509 96.1848 21.4926 96.1286 21.2396 96.1427C20.9847 96.1584 20.7574 96.255 20.5576 96.4324C20.3756 96.594 20.2729 96.7762 20.2494 96.979C20.2258 97.1817 20.2524 97.3975 20.3289 97.6263C20.4055 97.855 20.5029 98.0892 20.6212 98.3288L21.0297 99.1721C21.2884 99.7083 21.4148 100.202 21.4092 100.654C21.4035 101.106 21.216 101.496 20.8467 101.824C20.5399 102.096 20.1983 102.251 19.822 102.288C19.4424 102.326 19.0635 102.26 18.6856 102.091C18.3042 101.923 17.9577 101.664 17.6459 101.316C17.331 100.963 17.1144 100.594 16.9961 100.208C16.876 99.823 16.8532 99.454 16.9277 99.1006C17.0007 98.7455 17.1714 98.4407 17.44 98.1863L18.0126 98.8265Z" fill="black"/>
<path d="M18.0328 89.3545C18.3136 89.7866 18.4532 90.2247 18.4515 90.6688C18.4499 91.1128 18.3242 91.5346 18.0746 91.9342C17.8249 92.3339 17.4696 92.6824 17.0085 92.98C16.5394 93.2827 16.0695 93.4638 15.5988 93.5233C15.1248 93.5821 14.6858 93.5218 14.2818 93.3424C13.8745 93.1623 13.5356 92.8641 13.2652 92.448C13.0546 92.1239 12.9249 91.793 12.8762 91.4554C12.8274 91.1177 12.8574 90.7959 12.966 90.4902C13.0746 90.1844 13.2602 89.9184 13.5229 89.6921L13.9831 90.4003C13.8077 90.5901 13.6993 90.8305 13.6578 91.1213C13.6131 91.4114 13.6921 91.7126 13.8949 92.0246C14.0743 92.3007 14.3038 92.4962 14.5834 92.6111C14.8597 92.7253 15.1658 92.7564 15.5018 92.7042C15.8345 92.6514 16.1753 92.5124 16.5242 92.2873C16.881 92.057 17.1553 91.8005 17.3472 91.5177C17.5377 91.2329 17.6392 90.9403 17.6516 90.6398C17.6627 90.3373 17.5773 90.046 17.3952 89.7659C17.2756 89.5819 17.135 89.4355 16.9733 89.3269C16.8117 89.2182 16.6369 89.1507 16.449 89.1243C16.2611 89.0979 16.0686 89.117 15.8716 89.1817L15.4114 88.4735C15.71 88.3375 16.02 88.2781 16.3412 88.2951C16.6591 88.3115 16.9661 88.4073 17.2621 88.5825C17.5549 88.7571 17.8117 89.0144 18.0328 89.3545Z" fill="black"/>
<path d="M15.6404 85.5181L10.6212 87.7602L10.2864 87.016L11.0445 86.6774L11.021 86.6252C10.7316 86.6447 10.4557 86.5694 10.1933 86.3991C9.93097 86.2289 9.73225 85.9936 9.59717 85.6933C9.57171 85.6368 9.54099 85.5656 9.50499 85.4797C9.46899 85.3939 9.44338 85.3282 9.42816 85.2828L10.2124 84.9325C10.2176 84.9615 10.2347 85.0257 10.2638 85.1251C10.2896 85.2233 10.3256 85.3235 10.3716 85.4258C10.4812 85.6695 10.6303 85.8642 10.8188 86.01C11.0042 86.1545 11.2112 86.2424 11.4397 86.2735C11.6651 86.3035 11.8911 86.2679 12.1177 86.1667L15.2939 84.7479L15.6404 85.5181Z" fill="black"/>
<path d="M12.1487 76.2478C12.2807 76.7262 12.2825 77.1772 12.1543 77.6007C12.0254 78.0219 11.7841 78.3897 11.4303 78.7043C11.0759 79.0166 10.6248 79.2477 10.0771 79.3977C9.52484 79.5489 9.01514 79.5809 8.54804 79.4936C8.0803 79.404 7.68305 79.2109 7.35627 78.9145C7.02887 78.6158 6.79919 78.2272 6.66725 77.7488C6.53531 77.2704 6.53378 76.8206 6.66264 76.3994C6.79087 75.9759 7.03335 75.6077 7.39008 75.2948C7.74618 74.9796 8.20037 74.7464 8.75266 74.5952C9.30035 74.4452 9.80691 74.4153 10.2724 74.5056C10.7372 74.5935 11.1333 74.7868 11.4607 75.0856C11.7874 75.382 12.0168 75.7694 12.1487 76.2478ZM11.417 76.4482C11.3167 76.0848 11.1411 75.8113 10.89 75.6277C10.6389 75.4442 10.3459 75.3376 10.0111 75.3081C9.67622 75.2786 9.3316 75.3123 8.97721 75.4094C8.62283 75.5064 8.30815 75.6532 8.03317 75.8497C7.75819 76.0462 7.5587 76.2876 7.4347 76.5739C7.3107 76.8602 7.29881 77.185 7.39904 77.5484C7.49926 77.9118 7.67607 78.185 7.92947 78.3679C8.18287 78.5509 8.47814 78.6568 8.81529 78.6857C9.15243 78.7146 9.49819 78.6805 9.85258 78.5835C10.207 78.4864 10.5205 78.34 10.7932 78.1441C11.0659 77.9482 11.263 77.7074 11.3847 77.4218C11.5064 77.1361 11.5172 76.8116 11.417 76.4482Z" fill="black"/>
<path d="M3.12121 69.1534L10.4028 68.3158L10.5 69.1548L3.21842 69.9924L3.12121 69.1534Z" fill="black"/>
<path d="M2.70819 60.1198L10.0324 60.3996L9.99994 61.2436L2.67572 60.9638L2.70819 60.1198Z" fill="black"/>
<path d="M12.0149 43.4415C11.917 43.7131 11.7613 43.9374 11.5479 44.1144C11.3322 44.2906 11.0877 44.4059 10.8146 44.4602C10.5422 44.5122 10.2701 44.4896 9.99828 44.3923C9.72422 44.2942 9.49986 44.1392 9.3252 43.9271C9.1491 43.7121 9.03524 43.4686 8.9836 43.1967C8.92972 42.924 8.95173 42.6519 9.04962 42.3803C9.14832 42.1064 9.30511 41.8825 9.51999 41.7086C9.73343 41.5315 9.97634 41.417 10.2487 41.365C10.5196 41.3099 10.7921 41.3314 11.0662 41.4295C11.338 41.5267 11.562 41.6829 11.7381 41.898C11.915 42.1108 12.0304 42.3536 12.0843 42.6263C12.1367 42.8959 12.1136 43.1676 12.0149 43.4415Z" fill="black"/>
<path d="M12.8373 28.7654L13.4809 27.9241L19.8394 29.6257L19.8916 29.5575L16.56 23.899L17.2037 23.0576L23.0405 27.491L22.536 28.1505L18.1014 24.7822L18.0579 24.839L21.1008 30.0265L20.6137 30.6633L14.7875 29.1142L14.744 29.171L19.1785 32.5393L18.6741 33.1988L12.8373 28.7654Z" fill="black"/>
<path d="M25.5818 25.2133C25.2236 25.5567 24.8273 25.7732 24.3928 25.8626C23.9601 25.9503 23.5205 25.9141 23.0739 25.7539C22.629 25.5921 22.2093 25.307 21.8148 24.8985C21.417 24.4867 21.1447 24.0553 20.9978 23.6044C20.8526 23.1519 20.8323 22.7119 20.9369 22.2844C21.0432 21.8552 21.2754 21.4688 21.6336 21.1254C21.9918 20.7819 22.3872 20.5663 22.8199 20.4785C23.2544 20.3892 23.6949 20.4262 24.1414 20.5898C24.5897 20.7516 25.0127 21.0385 25.4105 21.4504C25.805 21.8588 26.074 22.2884 26.2175 22.7392C26.3627 23.1884 26.3822 23.6276 26.2759 24.0567C26.1714 24.4843 25.94 24.8698 25.5818 25.2133ZM25.0547 24.6675C25.3268 24.4066 25.4835 24.1224 25.5249 23.8149C25.5663 23.5075 25.5198 23.2 25.3854 22.8926C25.251 22.5851 25.0561 22.2993 24.8009 22.035C24.5456 21.7707 24.2656 21.5649 23.9607 21.4175C23.6559 21.2702 23.3477 21.2104 23.0361 21.2381C22.7246 21.2658 22.4327 21.4102 22.1607 21.6711C21.8886 21.932 21.7327 22.2171 21.6929 22.5262C21.6532 22.8354 21.7014 23.1446 21.8374 23.4537C21.9735 23.7629 22.1692 24.0496 22.4244 24.3139C22.6797 24.5782 22.9589 24.7832 23.2621 24.9288C23.5653 25.0744 23.8718 25.1325 24.1817 25.1031C24.4916 25.0736 24.7826 24.9284 25.0547 24.6675Z" fill="black"/>
<path d="M29.9472 21.1688L26.777 16.6778L27.4453 16.2095L27.9241 16.8878L27.971 16.8549C27.8962 16.5752 27.9174 16.2908 28.0346 16.0018C28.1518 15.7128 28.3453 15.4738 28.6149 15.2848C28.6657 15.2492 28.7299 15.2057 28.8075 15.1542C28.885 15.1027 28.9447 15.0653 28.9866 15.0418L29.4819 15.7435C29.4543 15.7541 29.3944 15.783 29.3021 15.8302C29.2104 15.874 29.1187 15.9281 29.0269 15.9925C28.808 16.1459 28.645 16.3286 28.5377 16.5407C28.431 16.7495 28.3843 16.9688 28.3975 17.1985C28.4112 17.4248 28.4896 17.6394 28.6327 17.8421L30.6389 20.684L29.9472 21.1688Z" fill="black"/>
<path d="M38.0908 16.1667C37.6157 16.401 37.154 16.4985 36.7054 16.4591C36.258 16.4164 35.8472 16.2519 35.4731 15.9656C35.1001 15.676 34.7884 15.2791 34.5378 14.7749C34.2872 14.2706 34.1584 13.7808 34.1513 13.3054C34.1453 12.8268 34.2545 12.3978 34.4789 12.0184C34.7044 11.6358 35.0397 11.3347 35.4847 11.1151C35.7415 10.9884 36.0163 10.9061 36.3091 10.868C36.6019 10.83 36.8988 10.8564 37.1997 10.9474C37.4997 11.0362 37.7886 11.2076 38.0667 11.4615C38.3447 11.7154 38.5978 12.0721 38.8261 12.5315L38.9854 12.852L35.1853 14.7268L34.8604 14.073L37.8902 12.5782C37.7522 12.3004 37.5734 12.08 37.3538 11.917C37.1364 11.7528 36.8947 11.6579 36.6288 11.6321C36.3651 11.6053 36.0962 11.6594 35.8224 11.7946C35.5207 11.9434 35.2968 12.147 35.1507 12.4053C35.0057 12.6604 34.9333 12.9356 34.9335 13.2308C34.9336 13.526 35.0011 13.8093 35.136 14.0807L35.3526 14.5166C35.5373 14.8884 35.7581 15.1718 36.015 15.367C36.2729 15.559 36.5508 15.6654 36.8488 15.686C37.1457 15.7044 37.4472 15.6382 37.7531 15.4872C37.9521 15.389 38.1181 15.2726 38.2509 15.1379C38.3849 14.9999 38.4826 14.8453 38.544 14.674C38.6043 14.5006 38.6241 14.3126 38.6034 14.1099L39.4371 13.954C39.4832 14.2399 39.462 14.5217 39.3736 14.7995C39.2841 15.0751 39.1316 15.3312 38.9162 15.5679C38.6997 15.8024 38.4245 16.002 38.0908 16.1667Z" fill="black"/>
<path d="M54.7768 5.19746C54.6788 4.84561 54.4635 4.59389 54.131 4.44229C53.7984 4.2907 53.4129 4.24865 52.9742 4.31616C52.6535 4.36552 52.381 4.46058 52.1565 4.60135C51.9344 4.74175 51.7702 4.91306 51.664 5.1153C51.56 5.31717 51.526 5.53364 51.5618 5.7647C51.5918 5.95804 51.6635 6.11718 51.7771 6.24214C51.8926 6.36437 52.0306 6.46021 52.191 6.52966C52.3511 6.59675 52.5159 6.64743 52.6854 6.68169C52.8545 6.7136 53.0091 6.73689 53.1489 6.75157L53.9154 6.83639C54.1117 6.85686 54.3322 6.89294 54.5768 6.94461C54.8238 6.99591 55.0651 7.08068 55.3007 7.19891C55.5383 7.31442 55.7448 7.47818 55.9201 7.69019C56.0954 7.90219 56.2094 8.17795 56.262 8.51747C56.3227 8.90886 56.2749 9.27831 56.1188 9.62583C55.9649 9.97299 55.7067 10.2698 55.3442 10.5163C54.9839 10.7625 54.5256 10.9284 53.969 11.014C53.4502 11.0939 52.988 11.0793 52.5824 10.9704C52.1792 10.861 51.8459 10.6733 51.5825 10.4073C51.3215 10.1409 51.1461 9.81181 51.0564 9.42006L51.962 9.28069C52.0279 9.55056 52.155 9.76275 52.3431 9.91726C52.5332 10.069 52.7589 10.1695 53.02 10.2186C53.2831 10.265 53.5585 10.2661 53.8462 10.2218C54.1811 10.1703 54.4733 10.0698 54.723 9.92032C54.9723 9.76849 55.1596 9.58275 55.2849 9.3631C55.4098 9.14109 55.4518 8.89806 55.4109 8.63399C55.3736 8.39349 55.2761 8.20814 55.1183 8.07793C54.9605 7.94772 54.7646 7.85234 54.5307 7.79178C54.2968 7.73123 54.047 7.68518 53.7813 7.65365L52.8505 7.5362C52.2593 7.46062 51.7752 7.29734 51.3983 7.04636C51.0214 6.79538 50.7951 6.42586 50.7194 5.9378C50.6566 5.53226 50.7114 5.16172 50.8839 4.82617C51.0585 4.48791 51.319 4.2064 51.6657 3.98165C52.0143 3.75418 52.4197 3.60488 52.8819 3.53374C53.3489 3.46188 53.7769 3.4817 54.166 3.59321C54.5547 3.70236 54.8775 3.88443 55.1343 4.13941C55.3935 4.39403 55.5573 4.70316 55.6257 5.0668L54.7768 5.19746Z" fill="black"/>
<path d="M62.741 10.3837C62.2257 10.3837 61.7819 10.262 61.4097 10.0186C61.0375 9.77528 60.7512 9.44006 60.5508 9.01298C60.3503 8.58589 60.2501 8.09797 60.2501 7.54921C60.2501 6.9909 60.3527 6.49821 60.5579 6.07113C60.7655 5.64166 61.0542 5.30644 61.424 5.06546C61.7962 4.8221 62.2304 4.70042 62.7267 4.70042C63.1132 4.70042 63.4616 4.77199 63.7718 4.91515C64.0819 5.0583 64.336 5.25872 64.5341 5.5164C64.7321 5.77408 64.855 6.07471 64.9027 6.41828H64.0581C63.9936 6.16776 63.8505 5.94587 63.6286 5.75261C63.4091 5.55696 63.1132 5.45914 62.741 5.45914C62.4118 5.45914 62.1231 5.54503 61.8749 5.71682C61.6292 5.88622 61.4371 6.12601 61.2987 6.43618C61.1627 6.74396 61.0947 7.10543 61.0947 7.52058C61.0947 7.94527 61.1615 8.31509 61.2952 8.63003C61.4312 8.94498 61.622 9.18953 61.8678 9.36371C62.1159 9.53788 62.407 9.62497 62.741 9.62497C62.9605 9.62497 63.1598 9.58679 63.3387 9.51044C63.5176 9.43409 63.6692 9.32434 63.7932 9.18118C63.9173 9.03803 64.0056 8.86624 64.0581 8.66582H64.9027C64.855 8.99031 64.7369 9.28259 64.5484 9.54265C64.3623 9.80033 64.1153 10.0055 63.8075 10.1582C63.5021 10.3085 63.1466 10.3837 62.741 10.3837Z" fill="black"/>
<path d="M67.2763 10.4734L68.1184 5.04115L68.9248 5.16527L68.7977 5.98578L68.8543 5.99449C68.995 5.74095 69.208 5.55044 69.4933 5.42296C69.7787 5.29548 70.0841 5.25679 70.4095 5.30687C70.4708 5.31631 70.5473 5.32928 70.6389 5.3458C70.7305 5.36231 70.7995 5.37655 70.8459 5.38853L70.7143 6.23732C70.6871 6.22589 70.6239 6.2053 70.5247 6.17555C70.4283 6.1438 70.3246 6.1194 70.2138 6.10234C69.9496 6.06169 69.7052 6.0808 69.4805 6.15968C69.2586 6.23656 69.0725 6.36241 68.9222 6.53724C68.7747 6.71007 68.682 6.91909 68.644 7.1643L68.1111 10.6019L67.2763 10.4734Z" fill="black"/>
<path d="M76.9634 12.5886C76.4901 12.4394 76.1106 12.1958 75.8248 11.8581C75.5413 11.521 75.3638 11.1185 75.2921 10.6506C75.2227 10.1834 75.2739 9.67919 75.4458 9.13798C75.6191 8.59222 75.8694 8.14703 76.1967 7.80241C76.5262 7.45851 76.9042 7.22997 77.3306 7.11678C77.7594 7.00431 78.2104 7.02271 78.6837 7.17196C79.157 7.32121 79.5354 7.56437 79.8189 7.90143C80.1046 8.23921 80.2818 8.64284 80.3505 9.11231C80.4215 9.5825 80.3703 10.0905 80.197 10.6362C80.0251 11.1774 79.7747 11.6189 79.4459 11.9605C79.1194 12.3028 78.7418 12.5302 78.313 12.6427C77.8866 12.7559 77.4367 12.7379 76.9634 12.5886ZM77.1931 11.8655C77.5526 11.9789 77.8776 11.98 78.1682 11.869C78.4588 11.758 78.7075 11.57 78.9144 11.305C79.1212 11.04 79.2802 10.7324 79.3915 10.3822C79.5027 10.032 79.5506 9.68812 79.5351 9.35052C79.5197 9.01292 79.4255 8.71429 79.2526 8.45463C79.0798 8.19498 78.8136 8.00846 78.454 7.89509C78.0945 7.78171 77.7691 7.78166 77.4778 7.89494C77.1865 8.00822 76.937 8.1985 76.7295 8.46578C76.5219 8.73306 76.3625 9.0418 76.2513 9.39199C76.1401 9.74219 76.0926 10.0849 76.1087 10.4203C76.1249 10.7556 76.2198 11.052 76.3934 11.3093C76.567 11.5667 76.8335 11.7521 77.1931 11.8655Z" fill="black"/>
<path d="M87.8577 8.8712L84.5961 15.4351L83.8387 15.0614L87.1003 8.4975L87.8577 8.8712Z" fill="black"/>
<path d="M95.691 13.4292L91.4641 19.4172L90.7725 18.9324L94.9994 12.9445L95.691 13.4292Z" fill="black"/>
<path d="M104.686 30.2645C104.51 30.0352 104.406 29.7832 104.373 29.5086C104.342 29.2325 104.378 28.9654 104.481 28.7074C104.586 28.4513 104.753 28.2359 104.983 28.0613C105.215 27.8852 105.467 27.7817 105.741 27.7506C106.018 27.72 106.285 27.7569 106.542 27.8612C106.801 27.9641 107.018 28.1302 107.194 28.3595C107.371 28.5907 107.474 28.8434 107.503 29.1176C107.536 29.3923 107.5 29.6577 107.396 29.9138C107.295 30.1704 107.128 30.3867 106.896 30.5627C106.667 30.7374 106.413 30.84 106.136 30.8706C105.861 30.9031 105.593 30.8679 105.334 30.765C105.079 30.6625 104.863 30.4957 104.686 30.2645Z" fill="black"/>
<path d="M116.628 38.9241L116.988 39.9207L112.104 44.3141L112.133 44.3949L118.706 44.6882L119.065 45.6848L112.164 48.1545L111.883 47.3734L117.126 45.497L117.102 45.4296L111.082 45.1512L110.81 44.3971L115.276 40.3659L115.252 40.2985L110.009 42.1749L109.727 41.3938L116.628 38.9241Z" fill="black"/>
<path d="M112.716 51.5156C112.621 51.0285 112.654 50.5786 112.814 50.1661C112.975 49.756 113.244 49.4075 113.62 49.1209C113.998 48.8365 114.465 48.6405 115.023 48.5328C115.585 48.4241 116.095 48.4311 116.554 48.5539C117.014 48.6789 117.395 48.9017 117.698 49.2222C118.002 49.5451 118.201 49.9501 118.296 50.4373C118.39 50.9244 118.357 51.373 118.197 51.7832C118.036 52.1957 117.766 52.5444 117.387 52.8291C117.007 53.1163 116.537 53.3142 115.974 53.4228C115.417 53.5305 114.91 53.5217 114.452 53.3961C113.996 53.273 113.616 53.05 113.312 52.7271C113.009 52.4066 112.81 52.0027 112.716 51.5156ZM113.461 51.3716C113.533 51.7417 113.687 52.0278 113.923 52.23C114.159 52.4322 114.443 52.5608 114.775 52.6158C115.106 52.6708 115.452 52.6635 115.813 52.5937C116.174 52.524 116.499 52.4017 116.788 52.2267C117.077 52.0518 117.295 51.8263 117.44 51.5503C117.586 51.2743 117.623 50.9512 117.551 50.5812C117.479 50.2112 117.323 49.9253 117.085 49.7235C116.846 49.5218 116.56 49.3936 116.226 49.3391C115.892 49.2845 115.545 49.2921 115.184 49.3618C114.823 49.4315 114.499 49.5536 114.213 49.7282C113.926 49.9027 113.711 50.1277 113.567 50.4033C113.424 50.6788 113.388 51.0016 113.461 51.3716Z" fill="black"/>
<path d="M113.762 57.3639L119.255 57.1541L119.286 57.9694L118.456 58.0011L118.459 58.0584C118.734 58.1481 118.962 58.3209 119.141 58.5767C119.32 58.8325 119.416 59.1249 119.429 59.4539C119.432 59.5159 119.433 59.5934 119.434 59.6865C119.436 59.7795 119.435 59.85 119.432 59.8979L118.574 59.9307C118.58 59.9018 118.588 59.8358 118.598 59.7327C118.611 59.632 118.615 59.5256 118.611 59.4135C118.601 59.1465 118.536 58.9102 118.415 58.7047C118.298 58.5014 118.139 58.3428 117.939 58.2286C117.741 58.1168 117.518 58.0656 117.27 58.0751L113.794 58.2079L113.762 57.3639Z" fill="black"/>
<path d="M113.556 66.9118C113.617 66.3856 113.785 65.9451 114.062 65.5902C114.34 65.238 114.701 64.9829 115.145 64.825C115.59 64.6697 116.093 64.6242 116.652 64.6886C117.212 64.7529 117.693 64.9116 118.096 65.1645C118.501 65.42 118.802 65.7452 118.999 66.1401C119.198 66.5377 119.269 66.9829 119.212 67.4759C119.179 67.7603 119.099 68.0357 118.972 68.3021C118.845 68.5685 118.661 68.8032 118.422 69.0062C118.184 69.2094 117.884 69.3586 117.52 69.4536C117.156 69.5486 116.719 69.5668 116.209 69.5082L115.854 69.4673L116.341 65.258L117.067 65.3415L116.678 68.6975C116.986 68.7329 117.268 68.7029 117.524 68.6075C117.78 68.5145 117.991 68.3634 118.157 68.1543C118.322 67.9476 118.423 67.6926 118.458 67.3892C118.497 67.055 118.447 66.7563 118.309 66.4931C118.174 66.2326 117.982 66.022 117.734 65.8614C117.486 65.7007 117.212 65.6031 116.911 65.5685L116.427 65.5129C116.015 65.4654 115.657 65.4963 115.353 65.6055C115.052 65.7174 114.812 65.8927 114.633 66.1315C114.457 66.3705 114.349 66.6595 114.309 66.9985C114.284 67.2189 114.292 67.4215 114.333 67.6064C114.376 67.7938 114.453 67.96 114.563 68.1048C114.676 68.2499 114.823 68.3689 115.005 68.4618L114.683 69.2462C114.418 69.1292 114.193 68.958 114.008 68.7326C113.825 68.5074 113.692 68.24 113.611 67.9304C113.531 67.621 113.513 67.2815 113.556 66.9118Z" fill="black"/>
<path d="M113.7 86.848C114.049 86.9567 114.377 86.9127 114.685 86.716C114.994 86.5192 115.239 86.2184 115.421 85.8137C115.554 85.5178 115.623 85.2375 115.627 84.9727C115.63 84.7102 115.575 84.4794 115.463 84.2804C115.35 84.0837 115.187 83.9376 114.974 83.8422C114.795 83.7624 114.622 83.7362 114.456 83.7637C114.29 83.7943 114.135 83.8581 113.989 83.955C113.845 84.0529 113.713 84.1637 113.592 84.2873C113.473 84.4119 113.37 84.529 113.281 84.6384L112.793 85.2355C112.669 85.3892 112.518 85.5546 112.342 85.7318C112.164 85.9112 111.962 86.0677 111.734 86.2012C111.508 86.3379 111.258 86.4223 110.985 86.4543C110.711 86.4864 110.418 86.4323 110.104 86.2922C109.742 86.1307 109.458 85.8901 109.251 85.5704C109.044 85.2528 108.935 84.875 108.926 84.437C108.915 84.0011 109.025 83.5264 109.256 83.0129C109.472 82.5342 109.735 82.1542 110.048 81.873C110.359 81.594 110.698 81.4161 111.065 81.3395C111.43 81.2651 111.802 81.2966 112.18 81.434L111.804 82.2695C111.541 82.1784 111.294 82.1698 111.062 82.2438C110.831 82.321 110.624 82.4558 110.441 82.6482C110.258 82.8439 110.108 83.0744 109.988 83.3398C109.849 83.6488 109.774 83.9486 109.764 84.2393C109.756 84.5309 109.81 84.7889 109.926 85.0132C110.044 85.2386 110.226 85.4057 110.47 85.5147C110.692 85.614 110.9 85.6328 111.096 85.571C111.291 85.5093 111.478 85.3967 111.656 85.2332C111.834 85.0698 112.009 84.8852 112.18 84.6794L112.785 83.962C113.17 83.507 113.571 83.1894 113.987 83.0093C114.403 82.8293 114.836 82.84 115.287 83.0414C115.662 83.2088 115.943 83.4559 116.131 83.7828C116.32 84.1129 116.414 84.4844 116.414 84.8972C116.415 85.3133 116.32 85.7345 116.128 86.161C115.934 86.5918 115.685 86.9402 115.379 87.2062C115.076 87.4732 114.747 87.6452 114.394 87.7223C114.039 87.8016 113.69 87.7713 113.348 87.6313L113.7 86.848Z" fill="black"/>
<path d="M105.008 90.6921C105.289 90.26 105.633 89.9539 106.04 89.7737C106.448 89.5936 106.885 89.5353 107.354 89.5988C107.822 89.6623 108.286 89.8428 108.747 90.1404C109.216 90.4431 109.574 90.7963 109.822 91.1999C110.069 91.6068 110.194 92.0306 110.195 92.4714C110.196 92.9154 110.062 93.3455 109.791 93.7616C109.581 94.0857 109.331 94.3389 109.042 94.5214C108.752 94.7038 108.445 94.8082 108.121 94.8346C107.796 94.8609 107.477 94.8009 107.162 94.6547L107.622 93.9465C107.868 94.0283 108.133 94.0286 108.416 93.9473C108.7 93.8693 108.943 93.6743 109.146 93.3622C109.326 93.0861 109.411 92.7975 109.402 92.4963C109.393 92.1984 109.296 91.9073 109.111 91.6231C108.927 91.3422 108.66 91.0892 108.311 90.8641C107.954 90.6338 107.607 90.4893 107.27 90.4306C106.931 90.3739 106.621 90.4013 106.341 90.5129C106.06 90.6266 105.828 90.8234 105.646 91.1035C105.526 91.2875 105.45 91.4753 105.416 91.6667C105.383 91.8582 105.393 92.0447 105.445 92.2263C105.498 92.408 105.594 92.5752 105.734 92.7278L105.274 93.436C105.027 93.2201 104.846 92.9626 104.73 92.6635C104.615 92.3678 104.577 92.0495 104.617 91.7086C104.657 91.371 104.787 91.0322 105.008 90.6921Z" fill="black"/>
<path d="M102.46 94.4239L106.571 98.0741L106.027 98.6823L105.406 98.131L105.368 98.1737C105.504 98.429 105.548 98.7107 105.5 99.0188C105.452 99.3269 105.318 99.6036 105.098 99.8491C105.057 99.8953 105.005 99.9523 104.941 100.02C104.877 100.088 104.827 100.138 104.792 100.17L104.15 99.6C104.174 99.5834 104.226 99.5416 104.305 99.4747C104.384 99.4111 104.461 99.3375 104.536 99.2539C104.714 99.0547 104.831 98.8396 104.887 98.6087C104.944 98.3811 104.939 98.157 104.874 97.9364C104.809 97.7191 104.684 97.5281 104.498 97.3634L101.897 95.0535L102.46 94.4239Z" fill="black"/>
<path d="M95.3964 101.371C95.7798 101.056 96.1915 100.87 96.6315 100.814C97.0697 100.76 97.5053 100.83 97.9383 101.024C98.3694 101.219 98.766 101.536 99.1281 101.973C99.4932 102.414 99.7317 102.865 99.8436 103.326C99.9537 103.788 99.9403 104.229 99.8033 104.647C99.6645 105.067 99.4034 105.434 99.02 105.749C98.6366 106.064 98.2258 106.249 97.7876 106.303C97.3476 106.359 96.9113 106.288 96.4786 106.091C96.0441 105.896 95.6443 105.577 95.2792 105.136C94.9171 104.699 94.6818 104.25 94.5732 103.789C94.4628 103.33 94.477 102.891 94.6158 102.471C94.7528 102.053 95.013 101.686 95.3964 101.371ZM95.8801 101.955C95.5889 102.195 95.4109 102.466 95.3461 102.77C95.2813 103.073 95.3041 103.383 95.4146 103.7C95.5251 104.017 95.6974 104.317 95.9317 104.6C96.166 104.883 96.4294 105.109 96.7221 105.28C97.0147 105.45 97.3174 105.533 97.6302 105.529C97.943 105.526 98.245 105.404 98.5362 105.165C98.8275 104.925 99.0048 104.653 99.068 104.348C99.1313 104.043 99.107 103.731 98.995 103.412C98.883 103.093 98.7098 102.792 98.4756 102.509C98.2413 102.226 97.9786 102.001 97.6874 101.832C97.3963 101.664 97.0951 101.582 96.7839 101.588C96.4726 101.594 96.1714 101.716 95.8801 101.955Z" fill="black"/>
<path d="M92.5974 112.486L88.842 106.191L89.5687 105.761L93.3241 112.055L92.5974 112.486Z" fill="black"/>
<path d="M84.497 116.55L81.7487 109.755L82.5325 109.44L85.2808 116.235L84.497 116.55Z" fill="black"/>
<path d="M65.4372 114.889C65.725 114.867 65.9933 114.917 66.242 115.039C66.4909 115.164 66.6959 115.339 66.857 115.566C67.0157 115.793 67.1061 116.051 67.1283 116.339C67.1506 116.629 67.1007 116.897 66.9785 117.144C66.8541 117.392 66.6783 117.596 66.4512 117.755C66.2243 117.916 65.967 118.007 65.6791 118.029C65.3889 118.051 65.1205 118 64.874 117.875C64.6253 117.753 64.4216 117.578 64.2629 117.351C64.102 117.127 64.0104 116.869 63.988 116.579C63.9658 116.291 64.017 116.023 64.1414 115.774C64.2634 115.525 64.4379 115.321 64.6648 115.16C64.8895 115.001 65.1469 114.911 65.4372 114.889Z" fill="black"/>
</svg>
