<svg class="dark:fill-[#fff]" width="120" height="120" viewBox="0 0 120 120" fill="none" xmlns="http://www.w3.org/2000/svg">
<path id="Vector" d="M56.0705 0.0322924C55.8125 0.0557493 54.991 0.137849 54.252 0.196491C37.2082 1.73292 21.2434 10.928 11.1319 25.0609C5.50145 32.919 1.9003 41.8326 0.53959 51.274C0.058651 54.57 0 55.5433 0 60.0117C0 64.4805 0.058651 65.4539 0.53959 68.7494C3.80058 91.2801 19.8358 110.21 41.5836 117.223C45.478 118.478 49.5836 119.334 54.252 119.85C56.0705 120.05 63.9295 120.05 65.748 119.85C73.8065 118.959 80.6335 116.965 87.3665 113.529C88.399 113.001 88.598 112.86 88.4575 112.743C88.3635 112.672 83.965 106.773 78.686 99.6424L69.091 86.6823L57.0675 68.8904C50.4515 59.1088 45.0088 51.11 44.9619 51.11C44.915 51.098 44.868 59.0033 44.8446 68.6554C44.8094 85.5564 44.7976 86.2368 44.5865 86.6353C44.2816 87.2102 44.0469 87.4447 43.5542 87.7026C43.1789 87.8906 42.8505 87.9256 41.0792 87.9256H39.0499L38.5103 87.5856C38.1584 87.3627 37.9003 87.0692 37.7243 86.7293L37.478 86.2013L37.5014 62.6858L37.5367 39.1585L37.9003 38.7011C38.088 38.4548 38.4868 38.1381 38.7684 37.9857C39.2493 37.7511 39.437 37.7277 41.4663 37.7277C43.8592 37.7277 44.2581 37.8214 44.8798 38.5017C45.0557 38.6894 51.566 48.4944 59.355 60.3051C67.1435 72.1154 77.7945 88.242 83.0265 96.1589L92.528 110.55L93.009 110.233C97.267 107.465 101.771 103.524 105.337 99.4194C112.926 90.7052 117.818 80.0792 119.46 68.7494C119.941 65.4539 120 64.4805 120 60.0117C120 55.5433 119.941 54.57 119.46 51.274C116.199 28.7436 100.164 9.81386 78.4165 2.80021C74.5805 1.557 70.4985 0.700817 65.924 0.184763C64.7975 0.0674781 57.044 -0.0615355 56.0705 0.0322924ZM80.6335 36.3202C81.1965 36.6017 81.654 37.1412 81.818 37.7042C81.912 38.0091 81.9355 44.5302 81.912 59.2258L81.877 80.3137L78.1585 74.6135L74.428 68.9139V53.5846C74.428 43.674 74.475 38.103 74.5455 37.8332C74.733 37.1764 75.1435 36.6604 75.7065 36.3554C76.1875 36.1091 76.3635 36.0857 78.2055 36.0857C79.9415 36.0857 80.2465 36.1091 80.6335 36.3202Z" fill="black"/>
</svg>
