<?xml version="1.0" encoding="UTF-8"?>
<svg version="1.1" xmlns="http://www.w3.org/2000/svg" width="48" height="48">
<path d="M0 0 C0.91765137 -0.00315216 1.83530273 -0.00630432 2.78076172 -0.009552 C4.27760498 -0.00651566 4.27760498 -0.00651566 5.8046875 -0.00341797 C6.82191895 -0.00437469 7.83915039 -0.00533142 8.88720703 -0.00631714 C11.04264386 -0.00699908 13.19808272 -0.00514382 15.35351562 -0.00097656 C18.66541121 0.00437148 21.97717117 -0.0009211 25.2890625 -0.00732422 C27.37760447 -0.00666344 29.46614635 -0.00538228 31.5546875 -0.00341797 C32.55258301 -0.0054422 33.55047852 -0.00746643 34.57861328 -0.009552 C35.49626465 -0.00639984 36.41391602 -0.00324768 37.359375 0 C38.17132324 0.00079559 38.98327148 0.00159119 39.81982422 0.00241089 C41.6796875 0.12939453 41.6796875 0.12939453 42.6796875 1.12939453 C42.76833958 4.01373273 42.79490046 6.87401611 42.77734375 9.75830078 C42.7759288 10.62253159 42.77451385 11.48676239 42.77305603 12.37718201 C42.76743989 15.14878745 42.75488469 17.92031333 42.7421875 20.69189453 C42.73717458 22.56624233 42.73261131 24.44059138 42.72851562 26.31494141 C42.71746522 30.91978997 42.7001898 35.52457874 42.6796875 40.12939453 C37.7296875 40.12939453 32.7796875 40.12939453 27.6796875 40.12939453 C27.0196875 42.10939453 26.3596875 44.08939453 25.6796875 46.12939453 C22.00284992 48.58061958 18.95251497 48.83436808 14.6796875 48.12939453 C12.1796875 46.37939453 12.1796875 46.37939453 10.6796875 44.12939453 C10.6796875 42.80939453 10.6796875 41.48939453 10.6796875 40.12939453 C5.3996875 40.12939453 0.1196875 40.12939453 -5.3203125 40.12939453 C-5.34496025 34.5935092 -5.36314746 29.05765553 -5.37524414 23.52172852 C-5.38028494 21.63695723 -5.38711748 19.75218988 -5.39575195 17.86743164 C-5.40782867 15.16437817 -5.41354318 12.46137622 -5.41796875 9.75830078 C-5.42313004 8.91038467 -5.42829132 8.06246857 -5.43360901 7.18885803 C-5.43380445 5.16868385 -5.38237461 3.14861519 -5.3203125 1.12939453 C-3.74730922 -0.44360875 -2.18347205 0.00213949 0 0 Z " fill="#DAECFF" transform="translate(5.3203125,-0.12939453125)"/>
<path d="M0 0 C2.5 1.6875 2.5 1.6875 4 3 C3.38700822 6.78011595 2.27270475 9.86230612 0.625 13.3125 C-0.96513372 16.69381884 -2.41266431 20.02867044 -3.625 23.5625 C-5 27 -5 27 -8 29 C-15.04191617 29.67065868 -15.04191617 29.67065868 -18.5 27.25 C-20 25 -20 25 -20 21 C-25.28 21 -30.56 21 -36 21 C-36 13.20123877 -33.98467261 8.84258968 -28.6875 3.1875 C-20.11336952 -4.76900243 -10.15758351 -4.72853026 0 0 Z " fill="#68CBFF" transform="translate(36,19)"/>
<path d="M0 0 C0.91765137 -0.00315216 1.83530273 -0.00630432 2.78076172 -0.009552 C4.27760498 -0.00651566 4.27760498 -0.00651566 5.8046875 -0.00341797 C6.82191895 -0.00437469 7.83915039 -0.00533142 8.88720703 -0.00631714 C11.04264386 -0.00699908 13.19808272 -0.00514382 15.35351562 -0.00097656 C18.66541121 0.00437148 21.97717117 -0.0009211 25.2890625 -0.00732422 C27.37760447 -0.00666344 29.46614635 -0.00538228 31.5546875 -0.00341797 C32.55258301 -0.0054422 33.55047852 -0.00746643 34.57861328 -0.009552 C35.49626465 -0.00639984 36.41391602 -0.00324768 37.359375 0 C38.17132324 0.00079559 38.98327148 0.00159119 39.81982422 0.00241089 C41.6796875 0.12939453 41.6796875 0.12939453 42.6796875 1.12939453 C42.6796875 4.09939453 42.6796875 7.06939453 42.6796875 10.12939453 C26.8396875 10.12939453 10.9996875 10.12939453 -5.3203125 10.12939453 C-5.3203125 0.00521315 -5.3203125 0.00521315 0 0 Z " fill="#BEDEFF" transform="translate(5.3203125,-0.12939453125)"/>
<path d="M0 0 C2.5 1.5 2.5 1.5 4 3 C4 3.99 4 4.98 4 6 C-1.05307643 7.78343874 -3.16445839 8.07237497 -8 6 C-12.66359072 5.37471409 -16.05433751 5.5360901 -20.3125 7.625 C-24.64447239 11.45325467 -27.31612313 15.18704662 -28 21 C-30.64 21 -33.28 21 -36 21 C-36.64544349 14.54556509 -34.39344077 9.97402788 -30.421875 5.0390625 C-21.69064228 -4.28211838 -11.25423921 -5.23904239 0 0 Z " fill="#0569FF" transform="translate(36,19)"/>
<path d="M0 0 C0.7528125 -0.00515625 1.505625 -0.0103125 2.28125 -0.015625 C4.7296721 0.27749596 6.37304054 1.03183231 8.5 2.25 C8.5 2.91 8.5 3.57 8.5 4.25 C7.51257813 4.69730469 6.52515625 5.14460938 5.5078125 5.60546875 C4.213134 6.21528108 2.91888521 6.8260063 1.625 7.4375 C0.97402344 7.72947266 0.32304687 8.02144531 -0.34765625 8.32226562 C-3.53665248 9.85101124 -5.27071652 10.81560076 -6.9453125 13.98828125 C-7.12835938 14.73464844 -7.31140625 15.48101562 -7.5 16.25 C-10.14 16.25 -12.78 16.25 -15.5 16.25 C-15.27110404 10.64204896 -13.8841502 7.90520215 -10.16796875 3.73046875 C-6.96153018 0.88447292 -4.26249127 -0.02919515 0 0 Z " fill="#D5E9FF" transform="translate(23.5,23.75)"/>
<path d="M0 0 C4.08087851 3.63970245 6.26680571 6.80041714 8 12 C8 13.98 8 15.96 8 18 C3.05 18 -1.9 18 -7 18 C-5.02989474 11.79416842 -2.74844552 5.90148454 0 0 Z " fill="#CA6BFF" transform="translate(40,22)"/>
<path d="M0 0 C2.625 0.375 2.625 0.375 5 1 C5.625 3.375 5.625 3.375 6 6 C5.34 6.66 4.68 7.32 4 8 C1.375 7.625 1.375 7.625 -1 7 C-1.625 4.625 -1.625 4.625 -2 2 C-1.34 1.34 -0.68 0.68 0 0 Z " fill="#056BFF" transform="translate(22,36)"/>
<path d="M0 0 C0.66 0 1.32 0 2 0 C3.85776765 3.13498292 4.20140476 5.37471432 4 9 C1.69 9 -0.62 9 -3 9 C-2.01 6.03 -1.02 3.06 0 0 Z " fill="#D8E5FF" transform="translate(36,31)"/>
</svg>
