<svg width="134" height="120" viewBox="0 0 134 120" fill="none" xmlns="http://www.w3.org/2000/svg">
<g id="Group 1321315413">
<path id="Vector" d="M79 59.9998C79 53.373 73.6278 48 67 48C60.3731 48 55 53.373 55 59.9998C55 66.6275 60.3731 72 67 72C73.6278 72 79 66.6275 79 59.9998Z" fill="black"/>
<path id="Vector_2" fill-rule="evenodd" clip-rule="evenodd" d="M105.862 37.6325C108.389 27.3451 111.565 8.26836 100.368 1.80073C89.223 -4.6387 74.7202 7.70044 67.0621 15.107C59.4263 7.77424 44.5161 -4.51214 33.3286 1.97602C22.1882 8.43706 25.6237 27.1975 28.2066 37.5494C17.8145 40.5065 0 46.8757 0 59.8888C0 72.8649 17.7959 79.7944 28.1265 82.7488C25.5341 93.1578 22.2706 111.65 33.4253 118.097C44.6546 124.584 59.5183 112.59 67.2475 105.102C74.9547 112.553 89.3182 124.625 100.465 118.16C111.647 111.675 108.735 92.8541 106.152 82.4423C116.166 79.4815 134 72.7029 134 59.8888C134 47.0008 116.09 40.5798 105.862 37.6325ZM104.592 76.9246C102.896 71.5458 100.607 65.826 97.8071 59.9174C100.48 54.1481 102.68 48.5021 104.329 43.158C111.827 45.336 128.276 50.3137 128.276 59.8888C128.276 69.5538 112.491 74.5786 104.592 76.9246ZM97.5967 113.197C89.2797 118.02 76.9254 106.475 71.2335 100.989C75.0096 96.8511 78.7831 92.0409 82.4658 86.6995C88.9443 86.124 95.0641 85.1824 100.614 83.8971C102.432 91.2618 105.95 108.352 97.5967 113.197ZM36.2855 113.128C27.9677 108.323 31.7695 91.8212 33.6767 84.1537C39.1653 85.3703 45.2411 86.2454 51.7347 86.7729C55.4416 91.9994 59.3245 96.8035 63.2373 101.011C58.403 105.696 44.6421 117.955 36.2855 113.128ZM5.72399 59.8888C5.72399 50.1877 22.0746 45.246 29.7437 43.0735C31.4208 48.5377 33.6204 54.2511 36.2748 60.0286C33.586 65.892 31.355 71.6958 29.6625 77.2246C22.3498 75.1274 5.72399 69.5958 5.72399 59.8888ZM36.1965 6.93941C44.5483 2.09612 57.507 13.8915 63.051 19.2006C59.1583 23.3886 55.3112 28.1566 51.636 33.3531C45.334 33.9383 39.3011 34.878 33.755 36.1371C31.6742 27.7879 27.8538 11.7775 36.1965 6.93941ZM86.5609 39.5866C90.8364 40.1271 94.9327 40.8461 98.779 41.7258C97.6244 45.4338 96.1852 49.3112 94.4901 53.286C92.033 48.6152 89.3954 44.0381 86.5609 39.5866ZM67.0639 23.2989C69.7041 26.1645 72.3484 29.3645 74.9498 32.8361C69.6733 32.586 64.3883 32.5851 59.1119 32.8325C61.7155 29.393 64.3825 26.1978 67.0639 23.2989ZM39.559 53.2818C37.892 49.3209 36.4658 45.4265 35.3011 41.6654C39.1243 40.8083 43.2016 40.1077 47.4494 39.576C44.6068 44.0178 41.9737 48.5931 39.559 53.2818ZM47.5713 80.6109C43.1833 80.1203 39.0443 79.4552 35.2222 78.6217C36.4053 74.7946 37.8629 70.8162 39.5656 66.7698C42.0135 71.5075 44.6868 76.1271 47.5713 80.6109ZM67.2224 96.8838C64.5094 93.9508 61.803 90.7066 59.1601 87.2174C64.4665 87.426 69.7832 87.4265 75.0891 87.1892C72.4797 90.7421 69.8448 93.9909 67.2224 96.8838ZM94.5446 66.564C96.3357 70.6541 97.8455 74.6109 99.0448 78.3734C95.1592 79.2618 90.9646 79.9772 86.5448 80.5085C89.4003 75.9725 92.0799 71.3243 94.5446 66.564ZM79.2713 81.2035C71.1544 81.7846 62.9871 81.7781 54.8676 81.2511C50.254 74.4992 46.1469 67.3985 42.6017 60.0268C46.1299 52.6703 50.2071 45.5834 54.7989 38.8421C62.9242 38.2269 71.0995 38.2251 79.2248 38.8458C83.7773 45.5866 87.8482 52.6551 91.4581 59.9451C87.8911 67.2978 83.7924 74.3991 79.2713 81.2035ZM97.5087 6.76892C105.863 11.5963 102.144 28.7412 100.319 36.1966C94.7599 34.9112 88.7227 33.9549 82.4024 33.3605C78.7201 28.1079 74.9051 23.3316 71.0754 19.1976C76.6904 13.7742 89.2355 1.98872 97.5087 6.76892Z" fill="black"/>
</g>
</svg>
