<svg width="120" height="120" viewBox="0 0 120 120" fill="none" xmlns="http://www.w3.org/2000/svg">
<path id="Vector" d="M0 120V101.367H39.0364C45.5569 101.367 46.9726 105.569 46.9726 108.073V120H0ZM114.728 92.5406C115.971 106.405 115.971 112.905 115.971 120H79.0517C79.0517 118.454 79.084 117.041 79.1164 115.607C79.2162 111.152 79.3214 106.506 78.4908 97.1214C77.3906 83.3835 70.5843 80.3304 58.0638 80.3304H0V55.3336H59.822C75.6351 55.3336 83.5416 51.1534 83.5416 40.0867C83.5416 30.3556 75.6351 24.4602 59.822 24.4602H0V0H66.4099C102.21 0 120 14.6916 120 38.1606C120 55.7155 107.482 67.1642 90.569 69.0715C104.845 71.5529 113.191 78.6129 114.728 92.5406Z" fill="black"/>
</svg>
