<svg width="200" height="120" viewBox="0 0 200 120" fill="none" xmlns="http://www.w3.org/2000/svg">
<path id="Vector" fill-rule="evenodd" clip-rule="evenodd" d="M100 0C73.33 0 56.67 13.33 50 40C60 26.67 71.67 21.67 85 25C92.61 26.9014 98.05 32.4245 104.06 38.5312C113.87 48.4809 125.22 60 150 60C176.67 60 193.33 46.67 200 20C190 33.33 178.34 38.33 165 35C157.39 33.0986 151.95 27.5755 145.93 21.4688C136.13 11.5091 124.79 0 100 0ZM50 60C23.33 60 6.67 73.33 0 100C10 86.66 21.67 81.67 35 85C42.61 86.9014 48.05 92.4245 54.07 98.5312C63.87 108.481 75.22 120 100.01 120C126.68 120 143.34 106.67 150.01 80C140.01 93.33 128.34 98.33 115.01 95C107.4 93.0986 101.96 87.5754 95.95 81.4688C86.13 71.5191 74.78 60 50 60Z" fill="black"/>
</svg>
