<svg width="82" height="120" viewBox="0 0 82 120" fill="none" xmlns="http://www.w3.org/2000/svg">
<g id="Group 1321315412">
<path id="Vector" d="M58.3031 2.93956C59.2593 4.12752 59.7468 5.73082 60.7177 8.93349L82 78.9474C74.0065 74.7923 65.4814 71.8264 56.6115 70.2638L42.7021 23.4262C42.5927 23.0513 42.3648 22.7221 42.0527 22.4881C41.7405 22.254 41.361 22.1277 40.971 22.1282C40.5811 22.1286 40.2018 22.2558 39.8902 22.4905C39.5785 22.7253 39.3514 23.055 39.2429 23.4301L25.5462 70.2638C16.6376 71.8199 8.02762 74.7776 0 78.9474L21.2885 9.00492C22.2673 5.80619 22.8563 4.03542 23.8115 2.84746C24.6559 1.80178 25.7197 0.9813 26.9654 0.479206C28.3737 -0.0867238 30.0729 0.00558516 33.4132 0.00558516H48.688C52.0313 0.00558516 53.7049 0.00558513 55.1181 0.575452C56.3646 1.07745 57.4606 1.89146 58.3031 2.93956Z" fill="black"/>
<path id="Vector_2" d="M60.7068 84.9469C57.1966 87.9471 50.1038 89.9604 42.0343 89.9604C32.133 89.9604 23.963 86.8797 21.7615 82.7363C20.9749 85.111 20.6644 87.8274 20.6644 89.5656C20.6644 89.5656 20.243 98.1253 26.1769 104.052C26.1769 103.321 26.2244 102.556 26.5046 101.88C26.7849 101.205 27.1957 100.591 27.7136 100.073C28.2315 99.5562 28.8463 99.146 29.5229 98.8662C30.1996 98.5864 30.9248 98.4424 31.6571 98.4425C36.9371 98.4425 36.9342 103.042 36.9302 106.778V107.108C36.9302 112.778 40.4834 117.951 45.4154 119.999C44.6553 118.44 44.1759 116.412 44.1777 114.677C44.1777 109.268 47.3536 107.258 51.0487 104.917C53.9876 103.057 57.252 100.989 59.4987 96.8428C60.7113 94.6086 61.3451 92.1069 61.3423 89.5656C61.3437 87.9877 61.1864 86.4503 60.7068 84.9469Z" fill="black"/>
</g>
</svg>
