<svg width="24" height="24" viewBox="0 0 24 24" fill="none" xmlns="http://www.w3.org/2000/svg">
<g id="mongodb-icon-1 1" clip-path="url(#clip0_90_13943)">
<path id="Vector" d="M11.9166 0.0654297L12.6295 1.26834C12.7898 1.49032 12.9634 1.68681 13.168 1.86979C13.7676 2.40175 14.3265 2.9695 14.8409 3.56917C16.0489 4.99406 16.8637 6.57644 17.4456 8.28781C17.7945 9.33323 17.984 10.4057 17.9982 11.4901C18.0567 14.7321 16.8195 17.5159 14.325 19.8294C13.9193 20.1963 13.4809 20.5329 13.0144 20.8359C12.7673 20.8359 12.6504 20.6656 12.5485 20.5089C12.3631 20.2183 12.2396 19.8991 12.1846 19.5677C12.0969 19.1755 12.0393 18.7833 12.0677 18.3783V18.1953C12.0477 18.1563 11.8298 0.157673 11.9166 0.0654297Z" fill="black"/>
<path id="Vector_2" d="M11.9164 0.0258003C11.8872 -0.0266957 11.858 0.0130513 11.8287 0.0385494C11.8429 0.30103 11.7411 0.535012 11.5816 0.758495C11.4063 0.980479 11.1742 1.15072 10.9413 1.3337C9.64737 2.34013 8.6289 3.55579 7.81328 4.91543C6.72802 6.7453 6.1687 8.7064 6.01008 10.771C5.93745 11.5157 6.27221 14.1435 6.53351 14.9017C7.24644 16.9145 8.52705 18.6012 10.1858 20.065C10.5932 20.4175 11.029 20.7445 11.4798 21.0587C11.6109 21.0587 11.625 20.9537 11.6551 20.8757C11.7126 20.7088 11.7564 20.5384 11.7862 20.3658L12.0784 18.4054L11.9164 0.0258003Z" fill="black"/>
<path id="Vector_3" d="M12.6295 21.6328C12.6587 21.3328 12.819 21.0838 12.9935 20.8356C12.8182 20.7704 12.688 20.6406 12.5861 20.4959C12.4983 20.3588 12.4256 20.2144 12.3691 20.0647C12.1654 19.5157 12.122 18.9397 12.0635 18.3788V18.0391C11.9909 18.0916 11.9759 18.5355 11.9759 18.6015C11.9334 19.1944 11.8458 19.784 11.7137 20.3661C11.6703 20.6016 11.6411 20.8364 11.48 21.0456C11.48 21.0718 11.48 21.0981 11.4942 21.1371C11.7563 21.83 11.8281 22.5357 11.8723 23.2549V23.5174C11.8723 23.8309 11.8582 23.7649 12.1478 23.8699C12.2647 23.9089 12.3949 23.9224 12.5118 24.0004C12.5995 24.0004 12.6137 23.9351 12.6137 23.8826L12.5702 23.4514V22.2485C12.5561 22.0385 12.5995 21.83 12.6287 21.6335L12.6295 21.6328Z" fill="black"/>
</g>
<defs>
<clipPath id="clip0_90_13943">
<rect width="24" height="23.9999" fill="white"/>
</clipPath>
</defs>
</svg>
